<svg xmlns:xlink="http://www.w3.org/1999/xlink" xmlns="http://www.w3.org/2000/svg" version="1.1" viewBox="0 0 505 191.8" width="505"  height="191.8" >
  <path d="M274.3,26.4c4.8,6.6,14.5,3.2,19.9-.8,7.2-7,1.7-15.3-7.5-14.6-7.5.2-17,7.4-12.5,15.4h.1Z" fill="currentColor"></path>
  <path d="M99,130.8c-19.1-1.5,17.7-45.9,19-23.6-3.1,9.3-9.5,20.1-19,23.6ZM479.2,36.6l-.2-.4c-2.3-18.8-84.9-3-68.5,20.8,3.5,3.4,9.2,1.8,13.5,2.1,5.5.2,6.8,7,1.9,9.4-11,.7-24.8,3.9-35.3,0-1.4-1-1.8-2.9-1.6-4.5,4.5-11,10.5-26.7,21.5-32.6l5.8-11.9c-8.4-1.1-16.9,1.7-23,7.6-24.5-2.2-47.3,15.5-55.3,38.1h0c0,.1-.1.3-.1.4-10.4,5.9-20.6,1.7-10.3-10,4.4-6.7,18.8-15,11-23.8-3.8-2.5-9.6-2.1-13.8-.9-2.7,1.1-6.9,2.4-8.4-1.1-4.4,0-9.4.5-13.8,1.3-13.7,12.1-26.3,26.5-35.2,42.5h-.1c0,.2-.2.4-.4.4-2.7,1.8-7.8,3.2-10.4.7-6.1-6.8,16.4-28.2,21-34.3-25.4-5.6-38.4,22.4-49.2,40.6h0c-.1.3-.4.5-.6.7-39.6,16,31.1-60.6,37.9-65.1-8.1-.3-16.8.6-24.6,2.7-25.6,20.4-46.3,48.3-60.1,77.7-52,24.2,20.5-61.6,29.3-70.8-8.2,0-17.1,1.5-24.8,4.3-17.4,15.4-32.8,35.5-44.4,55.7h-.1c-.6.9-1.6,1.4-2.7,1.5-.7.2-1.5,0-2.2,0-25.8-23.5-51.6,17.3-60.3,39.1-22,25.4-50.8,22.9-32.7-15.3,15-32.6,38.2-63.2,66.7-85.1,3.3-2.1,7.3-6.6,11.1-2.3,3.2,4.2-2.1,8.6-4.2,12.2-2.9,4.7-8,7.3-13.1,8.8-7.8,1.4-13.2,34-2.9,31.8,18.1-13.6,29.8-35.4,39.3-55.6,16.8-35.6-20.1-17.1-35.6-7.6C58.7,42.5-6.8,108.4.6,165.8c15.4,34.6,54-3.4,71-18.3.3-.2.7-.3,1-.5h.5c.1,0,.3,0,.4-.1,1.6,0,3.1.3,4.2,1.4,20.7,17,43.7-12.9,53.6-29.4,1.7-1.6,4.3-1.8,6.3-.5.2.2.3.4.4.4,19.2,21.9,47-1.5,67.2-10.1,20.4-9.2,50-18,72.4-16.8,3.5-5.9,27.9-55.5,34.1-36.4.3,2.3-2.3,5-3.4,6.8-27,33.5,10.4,21.7,30.9,21.5,3.5,0,8.5-.2,12,0,5.7.5,5.6,9.2-.1,9.7-6.1,0-14.3.5-20.4.9-21.6,1.9-46.8,8.4-60.8,26-2.1,6.3,2.7,9.7,7.8,12.2,28.2,12.6,61.5,3.9,82.9-17.1h.8c6,1,13.9,5.6,19.8,7.4l19.6-24.4c-6.4-2.4-33.7.2-22.4-12.2,23-2.5,53.4,1.6,72.5-14.4,5.5-5.5,5.2-16.7-3.2-18.9-3.7-1.1-8.4,1.5-11.7-.7-3.1-2.3-2.3-6.9,1.1-8.4,25.7-5.7,12.5,1.7,25.6,5.7,6.9,0,17.1-5.1,16.5-13ZM333.7,116.1c0,1.2-1.5,2.6-3.8,3.8-2.4,1.5-5.6,2.7-9.2,3.6-7.4,2.1-16.2,3.4-21.7,2.4-1.2-.1-2.2-.3-2.9-.6-.4-.4-.8-.7-1-1.1-.8-.7-1.2-1.7-1.1-2.9,0-.4,0-.7.2-1.1.2-.8.7-1.5,1.5-2.3,3.5-3.5,11.7-6.2,19.6-7.4,6-1,11.8-1.1,15.2.4,1.6.6,2.6,1.5,3,2.6,0,.1,0,.2,0,.3.2.6.3,1.4.1,2.2ZM370.5,64.5c-4.2,5.7-17,.8-11.7-6.8,2.7-5.8,10-18.7,17.6-14.5.3.2.4.5.6.6.5.6.7,1.1,1.1,1.8,0,.2.2.4,0,.6v.9h.3c.3,3.8-6.5,14-8,17.4Z" fill="currentColor"></path>
  <path d="M154.4,171.3c5.5-16.9,31.9-16.2,46.5-11.5-.7,1.2-1,4-2.7,4-9.8-6.5-22.1-5.8-31.1-.7-13.2,11.1-1.1,27.3,14.3,25.8v.2c4,.3,10.3-.5,12.3-1.3,1-4.6-.2-8.3.5-12.3,2-.3,5,.7,6.5-.2-.3,3.5-.3,9.3,0,13.5-16.7,4.9-48,5.9-46.3-17.4" fill="currentColor"></path>
  <path d="M341.3,157.8c-.5-.8-1.3-.7-2.2-.3-7,10.6-15,21.9-22.3,33.4h5.5c1.7-3.5,4.3-8.5,7-12.5,4.8,0,14-.2,17.8.2,2.2,3.3,5.3,8.6,7.1,12.5,1.8-.3,5.1-.2,7.8-.2-7.3-11.8-14.3-22.3-20.8-33.1h.1ZM331.2,175.6c2.2-3.6,5.1-7.5,7-11l7.3,11c-3.5.5-11.6-.2-14.3,0Z" fill="currentColor"></path>
  <path d="M437.4,159.6c-1.2,1.5-.7,4.5-3,4.3-3-7.8-22.7-4.7-15.8,4.6,5.6,4.3,13.1,2.5,19.6,8.3,6.3,14.8-18,17.8-28.2,12.3.7-1.8.7-3,1.2-4.6h1.2c7,9.9,30.4,2.5,17.6-6.5-32.8-5.7-18-27.5,7.5-18.4h-.1Z" fill="currentColor"></path>
  <path d="M219.6,157.8c-1.6,20.4-3.3,35.7,22.9,29.9,12-5.1,5.9-20.7,7.3-29.9,1.7.2,3.5.2,5,0-1,24.9.2,36.1-28.7,33.2-18.2-.8-12.2-20.3-13.5-33.1,1.5-.5,4.6.3,7-.2h0Z" fill="currentColor"></path>
  <path d="M275,158c-1.3,10.8-.5,21.6-.2,32.9-3.2,0-4.6-.2-7,.2,0-8.1.5-24.9,0-33.2,2,.2,4.5,0,7.1.2h.1Z" fill="currentColor"></path>
  <path d="M319.2,157.8c1,.5,0,2.3.3,3.3-6.1-.2-8.5-.5-14.8-.5-.5,9.6-.5,20.3,0,30.2l-7.1.2c-.2-7.4.6-22.2.2-30.1-6-1-8.8.5-15.1,0,.3-1.2,0-2.2,0-3.2,13,.5,23.6.5,36.5,0h0Z" fill="currentColor"></path>
  <path d="M386.9,175.1c6.7-.7,19-5.6,12.1-14-7.8-5.6-20.3-2-29.4-3.2.7,11.1.7,22.4,0,33.1l5.8-.2c.5-.3.8.8,1.3,0,0-4.6-.8-10.8-.5-15.4l2.2-.2c7.1,5.1,11.8,9.3,18.1,15.4,2.3.7,5.8-.2,9,.2-6.8-5.8-12-10.1-18.6-15.8h0ZM376.6,172.9c0-5.8,0-7.5.5-12.6,23.8-2.5,21.5,15.1-.5,12.6Z" fill="currentColor"></path>
  <path d="M501.4,15.4c0,6.1-4.8,10.9-11.1,10.9s-11.1-4.8-11.1-10.9,4.9-10.8,11.1-10.8,11.1,4.8,11.1,10.8ZM481.9,15.4c0,4.8,3.6,8.6,8.4,8.6s8.2-3.8,8.2-8.6-3.5-8.7-8.3-8.7-8.4,3.9-8.4,8.6ZM488.6,21h-2.5v-10.8c1-.2,2.4-.3,4.2-.3s3,.3,3.8.8c.6.5,1.1,1.3,1.1,2.4s-.9,2.1-2.2,2.5h0c1.1.5,1.6,1.3,2,2.8.3,1.6.5,2.3.8,2.7h-2.7c-.3-.4-.5-1.4-.9-2.6-.2-1.2-.9-1.7-2.2-1.7h-1.2v4.3ZM488.7,14.9h1.2c1.4,0,2.5-.5,2.5-1.6s-.7-1.6-2.3-1.6-1.1,0-1.4.1v3.1Z" fill="currentColor"></path>
</svg>