<svg version="1.0" xmlns="http://www.w3.org/2000/svg"
 viewBox="0 0 270.000000 94.000000"
 preserveAspectRatio="xMidYMid meet">
<g transform="translate(0.000000,94.000000) scale(0.100000,-0.100000)"
fill="currentColor" stroke="none">
<path d="M290 921 c-180 -35 -205 -47 -261 -124 -34 -47 -38 -83 -10 -92 26
-8 175 11 204 26 12 7 33 20 46 30 16 13 40 19 74 19 l50 0 -39 -26 c-21 -14
-50 -36 -64 -49 -36 -33 -63 -44 -127 -56 -74 -13 -113 -28 -113 -44 0 -8 11
-27 24 -42 l25 -30 -40 -58 c-51 -76 -54 -130 -9 -168 16 -14 52 -30 80 -36
112 -24 215 -8 355 56 55 25 113 46 129 47 26 1 31 -3 37 -32 14 -69 82 -106
152 -83 55 19 127 71 152 112 27 41 62 59 76 38 5 -8 9 -31 9 -51 0 -47 41
-98 78 -98 15 0 47 9 71 20 24 11 45 20 47 20 17 0 -8 -33 -79 -108 -98 -102
-117 -128 -117 -160 0 -76 124 4 235 153 37 49 85 88 157 125 39 21 40 20 63
-25 20 -39 58 -30 128 30 l66 56 -6 -49 c-4 -38 -2 -52 13 -66 27 -28 89 -16
169 32 l68 41 21 -32 c30 -44 62 -58 121 -54 69 5 167 54 284 143 54 41 101
74 105 74 12 0 6 -31 -14 -70 -27 -53 -26 -101 3 -128 31 -29 48 -28 116 9 76
40 131 86 131 109 0 30 -12 30 -68 3 -39 -18 -57 -22 -65 -14 -13 13 1 42 54
106 70 85 49 135 -55 135 -45 0 -67 5 -76 15 -23 27 -76 -2 -131 -71 -16 -21
-29 -49 -29 -65 0 -38 -38 -80 -109 -118 -47 -25 -71 -31 -103 -29 -35 2 -43
7 -43 22 0 14 19 29 65 52 85 43 151 110 152 153 1 46 -14 56 -86 55 -107 -1
-178 -52 -250 -178 -21 -36 -39 -53 -73 -68 -82 -36 -77 2 15 106 29 33 33 44
28 74 -11 74 -46 78 -136 17 -29 -19 -56 -35 -60 -35 -4 0 -15 11 -24 25 -13
19 -25 25 -54 25 -32 0 -45 -7 -84 -47 -25 -27 -57 -67 -71 -89 -25 -40 -83
-91 -93 -82 -2 3 7 29 21 59 14 30 25 64 25 75 0 12 -19 45 -42 74 -39 49 -43
52 -79 47 -21 -3 -94 -32 -162 -66 -68 -34 -129 -61 -135 -61 -7 0 -20 27 -29
59 -19 65 -38 81 -96 81 -52 0 -150 -53 -219 -119 -34 -34 -66 -61 -69 -61 -3
0 -14 9 -25 21 -24 27 -71 50 -159 79 l-70 23 111 27 c145 36 206 68 246 128
40 61 9 139 -70 175 -65 30 -231 33 -362 8z m303 -137 c52 -20 -4 -71 -105
-97 -32 -8 -58 -13 -58 -11 0 3 9 23 21 45 11 23 18 47 15 54 -2 7 -2 16 2 20
7 7 99 -1 125 -11z m-183 -302 c19 -9 35 -24 35 -32 0 -40 -165 -75 -239 -50
-48 15 -47 41 2 91 l39 38 64 -15 c35 -8 80 -23 99 -32z m1734 17 c-3 -5 -10
-7 -15 -3 -5 3 -7 10 -3 15 3 5 10 7 15 3 5 -3 7 -10 3 -15z m-846 -27 c-21
-33 -109 -102 -129 -102 -40 0 -17 42 49 86 62 43 103 51 80 16z m-448 -32
c16 -39 8 -58 -36 -76 -48 -20 -68 -12 -59 24 7 29 63 94 75 87 4 -3 13 -18
20 -35z"/>
</g>
</svg>
