<svg xmlns="http://www.w3.org/2000/svg" viewBox="0 0 305.1 69.6">
  <!-- Synergy Amps official logo — fill="currentColor" for theming -->
  <g fill="currentColor">
    <path fill="none" stroke="currentColor" stroke-width="2" stroke-miterlimit="10" d="M298.2,68.6H6.9C-1,46.7-1,22.9,6.9,1h291.4C306.1,22.9,306.1,46.7,298.2,68.6z"/>
    <path d="M255,22.9l13.2,11.4l12.9-11.4h7.4l-17.9,15.4v8.2h-5.5v-8.2l-17.9-15.4H255z"/>
    <path d="M64,22.9l13.2,11.4l12.9-11.4h7.4L79.7,38.3v8.2h-5.5v-8.2L56.3,22.9H64z"/>
    <path d="M108.9,22.9l24.3,19v-19h5.1v23.5H130l-23.8-18.6v18.6h-6V22.9H108.9z"/>
    <path d="M195.6,37.8H174v8.7h-4.8V22.9h27.3c6.1,0,7.7,1.4,7.7,6.6c0,1.7-0.2,2.5-0.9,3.3 c-0.8,0.9-2.1,1.4-4.6,1.9c3.2,0.5,4.3,0.8,5.1,1.6c0.6,0.5,0.8,1.1,0.8,3.5v6.7h-5.9v-6.7C198.6,37.9,195.6,37.8,195.6,37.8z M198.6,27.9H174v5h24.6V27.9z"/>
    <path d="M164.4,27.9h-21.3c-0.6-1.6-0.6-3.3,0-4.9h21.3C164.9,24.5,164.9,26.3,164.4,27.9z"/>
    <path d="M164.4,37.2h-21.3c-0.6-1.6-0.6-3.3,0-4.9h21.3C164.9,33.8,164.9,35.6,164.4,37.2z"/>
    <path d="M164.4,46.5h-21.3c-0.6-1.6-0.6-3.3,0-4.9h21.3C164.9,43.1,164.9,44.9,164.4,46.5z"/>
    <path d="M53.5,34.7c-0.9-1.6-3-2.4-6-2.4H24.3v-4.4h30v-4.9h-7.1v0H27.8c-7.3,0-9.2,1.5-9.2,7.1 c0,3.4,0.8,5.4,2.5,6.4c0.8,0.5,2.3,0.7,4.9,0.7h22.6v4.3l-30,0v4.9h8.6v0h17.9c4.8,0,5.6-0.1,6.9-0.8 c1.8-0.9,2.2-2.4,2.2-6.7C54.2,36.9,54,35.6,53.5,34.7z"/>
    <path d="M245.2,32.2h-26.3v5h20.7v4.4h-25.1V27.9l0,0h30.6v-4.9h-9.3v0h-20.4c-2.3,0-3.5,0.2-4.5,0.7 c-1.4,0.8-2.2,2.4-2.2,4.5v10.1c0,2.7,0.3,4.3,1,5.5c0.9,1.8,3,2.7,5.7,2.7h29.7V32.2L245.2,32.2z"/>
    <path d="M273.8,43.5c0.9,0,1.6,0.7,1.6,1.6c0,0.9-0.7,1.6-1.6,1.6c-0.9,0-1.6-0.7-1.6-1.6 C272.1,44.2,272.9,43.5,273.8,43.5L273.8,43.5z M273.8,43.8c-0.7,0-1.2,0.6-1.2,1.3c0,0.7,0.5,1.3,1.2,1.3 c0.7,0,1.2-0.6,1.2-1.3C275,44.3,274.5,43.8,273.8,43.8L273.8,43.8z M273.5,45.9h-0.4v-1.6c0.1,0,0.3-0.1,0.6-0.1 c0.3,0,0.4,0,0.6,0.1c0.1,0.1,0.2,0.2,0.2,0.3c0,0.2-0.1,0.3-0.3,0.4v0c0.2,0,0.2,0.2,0.3,0.4c0,0.2,0.1,0.3,0.1,0.4h-0.4 c0-0.1-0.1-0.2-0.1-0.4c0-0.2-0.1-0.3-0.3-0.3h-0.2V45.9z M273.5,45h0.2c0.2,0,0.4-0.1,0.4-0.2c0-0.1-0.1-0.2-0.3-0.2 c-0.1,0-0.2,0-0.2,0V45z"/>
  </g>
</svg>
