<svg xmlns="http://www.w3.org/2000/svg" viewBox="0 0 1000 780">
<g transform="translate(0,780) scale(0.1,-0.1)" fill="currentColor" stroke="none">
<path d="M5656 7585 c-8 -23 -9 -22 24 -28 37 -8 37 -5 5 -177 -40 -216 -44 -233 -73 -257 -14 -12 -24 -24 -22 -26 6 -6 326 -67 349 -67 12 0 21 15 30 48 7 26 15 55 18 65 4 12 0 17 -14 17 -13 0 -23 -12 -32 -35 -11 -30 -17 -35 -45 -35 -55 0 -146 22 -146 35 0 14 58 338 66 372 4 16 15 23 37 25 19 2 33 9 35 19 2 13 -16 19 -96 32 -55 9 -106 19 -115 22 -8 4 -17 -1 -21 -10z"/>
<path d="M4621 7553 c-5 -21 -33 -132 -62 -247 -46 -182 -56 -210 -76 -219 -13 -5 -23 -17 -23 -25 0 -12 11 -13 58 -8 91 11 112 17 112 32 0 9 -11 14 -30 14 -27 0 -30 3 -29 33 3 81 13 89 133 102 l64 7 26 -44 c31 -54 33 -68 6 -68 -20 0 -38 -25 -27 -36 5 -5 47 0 195 22 34 5 46 34 14 34 -27 0 -36 13 -172 238 -113 188 -124 202 -150 202 -25 0 -31 -5 -39 -37z m74 -184 c22 -39 40 -74 40 -78 0 -8 -125 -25 -131 -18 -7 7 36 167 45 167 3 0 24 -32 46 -71z"/>
<path d="M3623 7292 c-79 -39 -99 -69 -39 -58 42 8 50 -1 131 -164 67 -133 73 -174 35 -216 -37 -40 -105 -67 -146 -59 -44 8 -70 44 -149 203 l-59 121 23 25 c20 21 21 26 9 31 -16 7 -208 -91 -208 -105 0 -16 19 -21 38 -11 10 5 23 7 29 3 6 -4 48 -76 93 -160 83 -154 100 -175 159 -192 79 -22 231 53 271 135 30 63 23 99 -48 243 -87 174 -88 179 -67 202 35 38 2 39 -72 2z"/>
<path d="M6776 7245 c-3 -9 3 -20 14 -27 11 -7 20 -19 20 -26 0 -17 -155 -323 -178 -352 -14 -18 -22 -20 -44 -11 -21 8 -27 7 -33 -7 -3 -10 -1 -18 7 -21 7 -2 55 -26 106 -53 76 -40 93 -46 98 -33 4 9 -3 23 -17 35 l-24 19 83 163 c105 206 110 212 145 199 22 -9 29 -8 34 5 3 8 4 16 2 18 -8 6 -200 106 -203 106 -2 0 -6 -7 -10 -15z"/>
<path d="M7562 6680 c-33 -38 -39 -50 -28 -59 10 -8 17 -6 31 9 27 30 46 25 93 -23 l42 -43 -143 -142 c-78 -78 -148 -142 -155 -142 -7 0 -21 6 -32 12 -13 8 -23 9 -29 3 -7 -7 19 -39 75 -94 60 -60 87 -82 95 -74 8 8 6 18 -6 37 -17 25 -16 27 13 63 17 21 82 89 144 151 l114 112 44 -45 45 -46 -18 -31 c-13 -22 -15 -34 -7 -42 7 -7 23 3 54 34 l43 45 -166 162 -167 162 -42 -49z"/>
<path d="M2575 6521 c-78 -20 -167 -98 -210 -184 -65 -131 0 -284 150 -357 62 -30 140 -27 207 8 l54 29 -9 -59 c-7 -42 -7 -62 1 -70 8 -8 13 -6 17 8 22 66 19 63 177 165 75 48 76 49 83 100 8 61 -6 85 -24 40 -13 -31 -46 -56 -146 -112 l-60 -33 19 29 c57 87 71 173 41 253 -21 54 -94 136 -145 162 -43 22 -114 32 -155 21z m60 -105 c65 -31 129 -87 161 -142 61 -104 -6 -228 -121 -226 -112 1 -264 139 -265 240 0 34 36 98 67 120 56 39 89 41 158 8z"/>
<path d="M8282 5866 c1 -37 -40 -133 -95 -219 -26 -40 -52 -65 -89 -87 -75 -43 -97 -47 -117 -22 -11 14 -21 19 -30 13 -10 -7 -2 -30 40 -107 63 -118 55 -108 74 -101 12 5 13 11 3 33 -11 24 -10 28 12 46 14 11 51 33 82 49 65 33 132 37 288 19 46 -5 88 -6 92 -2 4 4 1 17 -7 29 -13 18 -28 21 -150 28 -74 4 -135 10 -135 13 0 3 6 13 14 21 33 37 116 186 116 208 0 26 -67 113 -87 113 -8 0 -12 -13 -11 -34z"/>
<path d="M5812 5678 l3 -63 40 -3 c45 -3 84 -27 102 -63 10 -19 13 -257 13 -1059 0 -1168 6 -1079 -80 -1152 -83 -72 -197 -72 -279 -1 -81 68 -75 22 -81 728 l-5 630 -240 0 -240 0 -5 -630 c-5 -691 -2 -656 -67 -717 -37 -35 -73 -48 -133 -48 -60 0 -96 13 -133 48 -64 60 -62 36 -67 617 l-5 530 -27 57 c-31 66 -90 127 -156 159 -38 19 -63 24 -132 24 -73 0 -92 -4 -135 -27 -64 -34 -128 -100 -154 -158 -18 -43 -38 -140 -29 -140 3 0 18 7 35 15 35 18 87 5 103 -25 6 -12 10 -206 10 -501 0 -469 -1 -484 -21 -526 -43 -89 -140 -142 -239 -130 -82 10 -141 52 -184 132 -21 40 -21 47 -24 690 l-3 651 -92 -24 c-77 -20 -129 -25 -317 -32 -139 -5 -252 -14 -296 -23 -199 -44 -362 -142 -475 -285 -79 -98 -122 -178 -163 -302 -58 -176 -68 -258 -72 -600 -3 -168 -7 -320 -10 -338 -6 -40 -67 -110 -111 -129 -107 -44 -242 17 -273 125 -7 25 -10 315 -8 922 l3 885 70 8 c308 33 741 97 840 124 153 41 276 136 340 262 55 110 88 301 51 301 -7 0 -103 -18 -212 -39 -682 -136 -1508 -220 -2149 -221 -205 0 -281 -12 -375 -60 -203 -102 -284 -341 -187 -552 78 -171 273 -263 497 -236 84 10 107 22 59 32 -82 16 -139 86 -139 169 0 51 29 100 78 133 33 23 66 25 552 37 l85 2 3 -920 c3 -963 -2 -1113 -38 -1245 -41 -143 -142 -300 -254 -393 -25 -21 -46 -44 -46 -50 0 -7 17 -29 38 -49 l37 -36 80 58 c226 167 434 236 913 305 187 26 301 79 412 188 l59 58 73 -35 c40 -19 102 -42 138 -52 80 -22 262 -24 340 -5 98 23 234 96 303 161 l64 60 26 -20 c38 -30 143 -77 212 -95 188 -48 434 11 582 140 l52 45 72 -46 c40 -26 104 -59 143 -73 64 -23 85 -26 206 -25 114 0 144 4 194 22 l59 22 -6 -113 c-11 -227 -107 -444 -260 -583 -123 -112 -291 -151 -436 -99 -24 8 -46 14 -47 12 -10 -10 78 -115 130 -154 227 -172 527 -163 758 22 181 146 319 463 344 793 l7 93 26 -7 c191 -51 375 -18 538 98 l41 30 65 -55 c120 -102 256 -151 417 -150 146 0 272 40 372 116 l48 37 49 -50 c219 -219 575 -250 836 -72 127 87 240 247 299 423 38 113 56 235 64 437 7 160 10 184 28 208 35 48 70 67 126 71 69 5 122 -24 155 -86 l23 -44 0 -423 c0 -272 -4 -441 -11 -475 -7 -34 -23 -64 -46 -90 -36 -40 -67 -54 -145 -65 l-48 -6 0 -54 c0 -52 1 -53 33 -58 17 -3 94 -15 169 -26 218 -33 422 -89 632 -172 54 -21 102 -35 106 -31 4 4 14 29 23 55 l16 47 -49 36 c-96 71 -173 207 -190 340 -7 50 -10 263 -8 570 3 474 4 491 24 536 25 53 80 110 132 135 20 10 65 20 99 22 51 4 71 0 120 -22 32 -15 68 -36 79 -47 l22 -20 45 73 c25 40 75 122 111 183 76 126 78 114 -33 190 -164 112 -381 134 -547 56 l-59 -28 -48 39 c-94 73 -215 86 -322 33 -55 -26 -87 -57 -167 -162 -65 -85 -123 -118 -208 -118 -82 0 -116 19 -260 145 -123 108 -197 160 -284 201 -169 79 -369 75 -541 -10 -148 -73 -249 -179 -331 -346 -97 -198 -124 -358 -124 -747 0 -129 -4 -228 -11 -245 -24 -65 -88 -106 -164 -106 -62 0 -105 21 -142 70 l-28 36 -5 1201 -5 1201 -323 3 -323 2 3 -62z m1793 -1433 c71 -16 128 -85 166 -201 19 -60 23 -97 27 -279 4 -223 -4 -316 -38 -412 -40 -113 -101 -166 -200 -171 -81 -4 -130 22 -177 92 -61 90 -75 157 -81 383 -5 217 5 328 39 419 37 99 93 155 174 175 30 7 35 6 90 -6z m-4405 -473 c0 -493 -2 -508 -74 -578 -106 -101 -253 -74 -328 62 -47 84 -61 174 -56 352 7 223 45 345 144 460 60 71 184 131 272 132 l42 0 0 -428z"/>
<path d="M9508 2495 c-53 -30 -72 -99 -43 -155 21 -42 53 -60 103 -60 37 0 50 6 78 34 29 29 34 41 34 80 0 64 -38 106 -100 112 -29 3 -55 -1 -72 -11z m121 -26 c48 -44 49 -98 4 -144 -39 -38 -102 -36 -137 6 -17 19 -26 43 -26 64 0 21 9 45 26 64 21 26 33 31 68 31 29 0 49 -7 65 -21z"/>
<path d="M9528 2406 c2 -37 9 -66 15 -69 9 -3 11 14 10 60 -2 56 0 64 15 61 20 -4 29 -38 12 -48 -9 -6 -8 -15 4 -39 9 -17 21 -31 26 -31 14 0 12 13 -4 35 -12 16 -12 22 1 41 12 19 12 24 -2 38 -9 9 -31 16 -48 16 l-32 0 3 -64z"/>
<path d="M7715 1951 c-71 -43 -144 -152 -145 -215 0 -48 44 -111 95 -136 59 -29 86 -22 175 46 92 69 131 70 165 3 21 -40 6 -87 -40 -128 -48 -42 -87 -48 -126 -20 -25 18 -33 19 -40 8 -6 -10 4 -27 33 -56 23 -24 48 -43 55 -43 21 0 87 46 117 80 45 54 66 105 66 160 0 59 -17 97 -60 133 -64 54 -114 45 -218 -40 -60 -48 -100 -55 -132 -23 -39 39 -17 120 40 154 35 20 54 20 85 0 23 -15 25 -15 31 1 5 12 -5 29 -32 56 l-39 39 -30 -19z"/>
<path d="M2507 1866 c-116 -42 -201 -175 -181 -285 17 -93 92 -191 199 -261 l64 -42 54 46 c40 34 59 44 75 39 38 -10 24 18 -47 96 -50 55 -73 72 -85 68 -15 -6 -14 -10 8 -40 l26 -33 -39 -38 c-29 -28 -44 -36 -59 -32 -32 11 -90 81 -101 124 -34 124 92 282 224 282 86 0 170 -69 195 -159 8 -30 7 -40 -10 -63 -22 -31 -26 -48 -9 -48 21 0 99 55 99 69 0 31 -48 109 -105 170 -99 106 -206 143 -308 107z"/>
<path d="M7058 1322 c-19 -10 -66 -41 -104 -68 -38 -27 -90 -63 -116 -79 -45 -28 -56 -44 -42 -57 3 -3 19 -1 35 6 27 10 32 8 50 -14 46 -58 209 -307 209 -320 0 -7 -8 -22 -17 -32 -11 -13 -13 -22 -6 -29 7 -7 37 8 94 47 105 71 103 69 96 89 -6 14 -9 14 -31 0 -23 -15 -25 -15 -59 27 -45 55 -207 295 -207 307 0 13 46 41 80 47 25 5 35 1 65 -29 47 -47 49 -95 5 -139 -33 -32 -36 -38 -19 -38 15 0 133 -48 213 -86 l68 -33 60 40 c45 31 57 44 49 53 -6 7 -21 11 -34 9 -19 -4 -208 62 -245 85 -10 7 -9 16 3 45 29 71 8 144 -50 171 -42 20 -53 20 -97 -2z"/>
<path d="M3315 1269 c-4 -6 2 -17 14 -25 12 -8 21 -21 21 -27 0 -7 -38 -80 -85 -162 -71 -125 -85 -157 -85 -194 0 -55 26 -97 84 -139 112 -80 216 -84 282 -10 12 12 58 83 104 156 80 129 83 133 111 127 46 -10 37 21 -13 46 -24 12 -55 30 -71 41 -24 17 -28 18 -33 3 -4 -9 2 -25 15 -39 l21 -22 -76 -129 c-95 -164 -110 -180 -169 -179 -83 2 -164 81 -148 145 7 26 99 190 145 257 17 24 35 41 41 39 7 -3 19 -8 28 -12 10 -4 19 0 22 9 4 10 -21 30 -90 70 -102 60 -108 62 -118 45z"/>
<path d="M6128 863 c-12 -3 -18 -14 -18 -31 0 -15 -9 -128 -20 -252 -17 -202 -21 -227 -39 -242 -22 -17 -28 -38 -11 -38 6 0 44 10 86 22 55 16 74 26 72 38 -3 10 -13 14 -36 12 l-32 -3 0 59 0 59 88 26 87 27 32 -37 c38 -44 41 -63 13 -70 -13 -3 -20 -12 -17 -22 4 -19 -2 -20 124 19 77 23 101 35 96 46 -3 8 -17 14 -32 14 -21 0 -55 34 -190 190 -90 105 -168 189 -175 189 -6 -1 -19 -3 -28 -6z m114 -245 c21 -28 26 -39 16 -43 -56 -20 -102 -35 -109 -35 -10 0 -12 87 -2 144 l6 40 29 -35 c16 -19 43 -51 60 -71z"/>
<path d="M4284 819 c-7 -12 12 -29 34 -29 19 0 15 -36 -27 -206 -53 -212 -53 -214 -91 -214 -24 0 -31 -4 -28 -16 2 -12 30 -23 98 -40 52 -13 103 -23 113 -24 26 0 21 25 -8 38 -14 6 -25 20 -25 29 0 10 22 101 48 203 l48 185 31 3 c41 4 52 30 15 38 -15 3 -61 15 -104 25 -89 22 -95 23 -104 8z"/>
<path d="M5156 713 l-129 -4 7 -46 c3 -25 6 -54 6 -64 0 -37 27 -19 34 21 l6 40 64 0 64 0 7 -82 c3 -46 5 -139 3 -208 l-3 -125 -27 -3 c-21 -2 -28 -9 -28 -24 0 -18 4 -20 31 -14 17 3 71 6 120 6 72 0 89 3 89 15 0 8 -8 15 -18 15 -46 0 -50 14 -57 228 l-7 203 68 -3 69 -3 3 -32 c2 -25 8 -33 23 -33 17 0 19 7 19 60 l0 60 -107 -2 c-60 -1 -166 -4 -237 -5z"/>
</g>
</svg>
