<svg version="1.0" xmlns="http://www.w3.org/2000/svg"
 viewBox="0 0 947.000000 157.000000"
 preserveAspectRatio="xMidYMid meet">
<g transform="translate(0.000000,157.000000) scale(0.100000,-0.100000)"
fill="currentColor" stroke="none">
<path d="M0 792 l0 -782 820 0 820 0 0 780 0 780 -580 0 -580 0 0 -160 0 -160
193 0 c211 0 272 -10 359 -57 64 -35 138 -115 180 -194 32 -62 33 -68 33 -179
0 -111 -1 -118 -34 -184 -95 -193 -311 -289 -512 -226 -121 37 -217 117 -271
228 l-32 64 -7 425 c-4 234 -9 427 -12 429 -2 2 -88 7 -190 11 l-187 6 0 -781z
m252 276 c5 -354 6 -365 30 -428 100 -270 367 -421 654 -369 151 27 323 158
392 299 109 222 69 465 -107 640 -129 128 -210 158 -448 167 -152 6 -153 6
-153 29 l0 24 440 0 440 0 0 -640 0 -640 -680 0 -680 0 0 640 0 640 54 0 53 0
5 -362z"/>
<path d="M1960 783 l0 -786 837 6 836 7 44 36 c74 60 77 73 81 293 6 312 -4
352 -100 417 l-47 32 29 12 c37 16 97 81 107 117 5 16 8 136 8 268 0 272 -1
276 -78 339 l-44 36 -536 7 -537 6 0 -186 0 -187 381 0 c243 0 387 -4 400 -10
17 -9 19 -22 19 -105 l0 -95 -400 0 -400 0 0 -190 0 -190 374 0 c219 0 385 -4
400 -10 25 -9 26 -12 26 -105 l0 -95 -495 0 -495 0 0 585 0 585 -205 0 -205 0
0 -787z"/>
<path d="M4220 1561 c-166 -6 -177 -7 -208 -31 -19 -14 -46 -45 -60 -70 l-27
-45 0 -630 0 -630 25 -45 c18 -31 42 -55 80 -78 l55 -33 665 4 c474 3 675 7
701 16 56 17 116 88 126 147 11 64 11 1174 0 1238 -10 59 -71 130 -126 147
-41 13 -931 20 -1231 10z m943 -405 c16 -8 17 -35 17 -372 l0 -364 -27 -7
c-16 -5 -202 -8 -415 -8 -304 0 -390 3 -400 13 -15 15 -25 590 -11 682 7 46
12 55 33 61 34 10 781 6 803 -5z"/>
<path d="M5890 1542 c-25 -16 -58 -45 -74 -66 l-28 -38 -2 -356 c-1 -392 -2
-385 61 -444 55 -52 49 -51 659 -57 463 -5 574 -9 587 -20 13 -10 17 -31 17
-92 0 -67 -3 -80 -19 -89 -27 -14 -865 -14 -892 0 -14 8 -19 21 -19 55 l0 45
-201 0 -201 0 4 -162 c4 -187 12 -216 84 -274 l43 -36 733 -1 c667 -2 736 -1
763 15 35 19 87 73 105 108 28 53 20 663 -9 717 -6 12 -31 38 -56 58 l-44 37
-583 7 c-396 5 -592 11 -610 19 -27 11 -28 15 -28 79 0 38 5 75 10 83 8 13 71
15 445 18 294 2 442 -1 455 -8 15 -8 20 -21 20 -50 l0 -40 211 0 211 0 -4 178
c-5 193 -12 224 -64 276 -64 63 -29 61 -814 64 l-715 3 -45 -29z"/>
<path d="M7830 1538 c-42 -26 -61 -45 -80 -83 l-25 -50 2 -347 1 -348 31 -39
c18 -22 48 -50 69 -63 l37 -23 583 -5 c503 -4 584 -7 592 -20 5 -8 10 -50 10
-92 0 -67 -3 -79 -20 -88 -29 -16 -875 -9 -891 7 -7 7 -15 29 -18 50 l-6 38
-199 3 -199 2 5 -162 c5 -176 11 -199 64 -252 65 -65 18 -61 799 -61 546 0
720 3 752 13 51 15 109 79 120 131 10 47 10 628 0 663 -4 15 -21 44 -39 63
-63 72 -28 69 -681 75 -567 5 -589 6 -603 24 -17 24 -19 115 -2 151 l11 25
434 0 c280 0 441 -4 454 -10 14 -8 19 -21 19 -50 l0 -40 212 0 211 0 -6 191
c-8 214 -13 232 -85 287 l-35 27 -311 6 c-171 4 -500 7 -731 8 l-421 1 -54
-32z"/>
</g>
</svg>
