<svg xmlns="http://www.w3.org/2000/svg" viewBox="0 0 800 320">
<g transform="translate(0.000000,320.000000) scale(0.100000,-0.100000)"
fill="currentColor" stroke="none">
<path d="M0 1600 l0 -1600 4000 0 4000 0 0 1600 0 1600 -4000 0 -4000 0 0
-1600z m2154 989 c111 -20 223 -106 274 -209 26 -53 27 -63 30 -238 3 -144 7
-184 17 -189 8 -3 46 26 91 70 88 86 151 121 259 143 95 20 188 7 285 -39 111
-53 202 -163 168 -205 -9 -10 -15 -9 -33 8 -32 30 -85 27 -117 -7 -14 -16
-126 -165 -248 -333 -265 -363 -288 -390 -345 -390 -42 0 -75 20 -94 57 -7 15
-11 123 -11 332 l0 310 -25 26 c-29 28 -78 33 -109 10 -18 -14 -118 -148 -633
-850 -141 -192 -261 -353 -267 -357 -6 -4 -316 -8 -688 -8 -550 0 -678 2 -678
13 0 7 60 71 132 142 73 71 345 339 603 595 1010 999 1068 1055 1122 1083 83
44 165 55 267 36z m2355 -889 c50 -14 97 -50 115 -87 31 -64 18 -128 -52 -263
-144 -277 -183 -361 -177 -380 7 -22 39 -34 76 -28 21 3 25 10 30 55 10 78
128 300 199 373 57 59 91 80 175 105 75 22 1295 22 1349 0 32 -14 40 -14 72 0
30 12 100 15 423 15 363 0 388 -1 418 -19 58 -36 56 -97 -9 -220 -90 -170
-138 -269 -138 -284 0 -35 29 -42 184 -42 138 1 155 3 200 24 81 40 132 144
90 185 -12 12 -37 16 -107 16 -73 0 -99 4 -123 19 -53 32 -52 111 3 199 64
104 127 122 427 122 204 0 226 -2 235 -17 7 -13 4 -27 -11 -53 -31 -52 -31
-52 -73 -34 -29 12 -64 15 -149 12 -126 -3 -152 -15 -182 -80 -26 -57 -11 -68
89 -68 149 0 192 -27 191 -119 -1 -139 -123 -256 -291 -281 -99 -14 -629 -12
-672 3 -19 7 -43 25 -55 40 -37 51 -27 89 75 291 103 204 105 216 29 216 -42
0 -50 -11 -50 -63 0 -77 -84 -158 -203 -197 -21 -6 -40 -17 -43 -24 -4 -11 16
-78 71 -236 29 -82 70 -160 85 -160 6 0 10 -11 10 -25 l0 -25 -105 0 c-120 0
-143 8 -197 68 -26 29 -43 64 -67 143 -18 57 -37 118 -44 134 -6 17 -12 55
-11 85 0 69 24 110 64 110 65 0 127 37 155 94 36 71 7 96 -112 96 l-83 0 0
-37 c0 -48 -47 -131 -92 -164 -38 -29 -100 -59 -120 -59 -8 0 -22 -6 -32 -13
-18 -13 -16 -21 34 -168 55 -160 67 -186 108 -231 44 -48 27 -58 -97 -58
l-109 0 -49 38 c-58 46 -61 53 -113 211 -66 206 -54 281 49 295 55 7 102 39
126 87 37 70 4 102 -101 97 l-69 -3 3 -38 c3 -32 -11 -68 -83 -210 -48 -95
-100 -193 -118 -218 -47 -71 -73 -82 -204 -87 -109 -4 -113 -4 -113 16 0 11 4
22 9 24 17 7 81 120 198 353 28 55 53 108 57 117 8 26 -21 48 -65 48 l-39 0 0
-47 c0 -27 -7 -61 -16 -78 -8 -16 -41 -79 -72 -139 -96 -185 -186 -262 -333
-285 -85 -14 -852 -14 -901 -1 -54 15 -78 51 -78 117 0 49 11 74 125 298 76
150 125 256 125 274 0 46 -23 61 -90 61 l-58 0 5 -58 5 -59 -138 -269 c-76
-148 -145 -291 -155 -319 l-16 -50 -83 -3 c-97 -3 -129 7 -154 49 -27 46 -15
91 63 242 205 394 211 409 174 449 -12 14 -31 18 -76 18 l-59 0 8 -27 c17 -58
7 -91 -75 -253 -212 -420 -233 -450 -318 -468 -26 -6 -88 -12 -138 -13 -103
-2 -114 7 -72 63 46 62 317 586 317 614 0 57 -72 69 -185 30 -38 -14 -71 -23
-73 -21 -7 7 24 42 99 113 l78 72 533 0 c316 0 547 -4 567 -10z"/>
<path d="M5048 1394 c-68 -21 -120 -85 -206 -255 -40 -79 -72 -151 -72 -160 0
-33 34 -49 104 -49 124 0 159 33 277 259 87 166 86 165 53 196 -31 29 -81 32
-156 9z"/>
</g>
</svg>
