<svg xmlns="http://www.w3.org/2000/svg" viewBox="0 0 432 432"><path fill="#D2CEB7" d="M368.3 78.6H61.5c-3.2 0-5.8 2.6-5.8 5.8v258c0 3.2 2.6 5.8 5.8 5.8h306.9c3.2 0 5.8-2.6 5.8-5.8v-258c-.1-3.2-2.7-5.8-5.9-5.8z"/><path fill="#E8E9E2" d="M368.3 78.6H61.5c-3.2 0-5.8 2.6-5.8 5.8v6.7h318.4v-6.7c0-3.2-2.6-5.8-5.8-5.8z"/><path fill="#FFFFF9" d="M368.3 328.9H61.5c-3.2 0-5.8-2.6-5.8-5.8V85.4h318.4v237.8c0 3.2-2.6 5.7-5.8 5.7z"/><path fill="#D2CEB7" d="M368.3 348.1H61.5c-3.2 0-5.8-2.6-5.8-5.8v-19.2h318.4v19.2c0 3.2-2.6 5.8-5.8 5.8z"/><g><path fill="#232928" d="M298.3 316.9H78.6c-3.2 0-5.8-2.6-5.8-5.8V105.8c0-3.2 2.6-5.8 5.8-5.8l225.5 144v67c0 3.3-2.6 5.9-5.8 5.9z"/></g><g><g fill="#191E1D"><circle cx="267.4" cy="132.1" r="18.9"/><circle cx="344.1" cy="132.1" r="18.9"/><circle cx="344.1" cy="200.4" r="20.1"/><circle cx="344.1" cy="273.3" r="21.1"/><circle cx="267.4" cy="273.3" r="21.1"/></g><circle fill="#2B2F39" cx="267.4" cy="129.7" r="18.9"/><circle fill="#2B2F39" cx="344.1" cy="129.7" r="18.9"/><circle fill="#2B2F39" cx="344.1" cy="198" r="20.1"/><circle fill="#2B2F39" cx="344.1" cy="270.9" r="21.1"/><circle fill="#2B2F39" cx="267.4" cy="270.9" r="21.1"/><circle fill="#191E1D" cx="267.1" cy="180.1" r="6"/><circle fill="#E1F3F8" cx="334.8" cy="209.9" r="2.3"/><circle fill="#E1F3F8" cx="329.6" cy="265.1" r="2.3"/><circle fill="#E1F3F8" cx="252.8" cy="276.1" r="2.3"/><circle fill="#E1F3F8" cx="332.9" cy="120.7" r="2.3"/><circle fill="#E1F3F8" cx="272.5" cy="116" r="2.3"/><circle fill="#EB2027" cx="267.1" cy="178.9" r="4.8"/><path fill="#F06874" d="M271 177.9c0 2.2-1.7 0-3.9 0s-3.9 2.2-3.9 0 1.7-3.9 3.9-3.9 3.9 1.8 3.9 3.9z"/><circle fill="#F7F7E4" cx="117.6" cy="272.9" r="10.6"/><path fill="#BBBAB7" d="M110.1 280.5c-4.2-4.2 8.2 1.4 12.3-2.8s-1.4-16.5 2.8-12.3c4.2 4.2 4.2 10.9 0 15.1s-10.9 4.2-15.1 0z"/><circle fill="#191E1D" cx="120.9" cy="104.8" r="6"/><circle fill="#EB2027" cx="120.9" cy="103.6" r="4.8"/><path fill="#F06874" d="M124.8 102.7c0 2.2-1.7 0-3.9 0s-3.9 2.2-3.9 0 1.7-3.9 3.9-3.9c2.1 0 3.9 1.7 3.9 3.9z"/><circle fill="#878F83" cx="116.1" cy="271.9" r="8.6"/><circle fill="#B8B6AA" cx="115.6" cy="270.9" r="8.6"/><circle fill="#F7F7E4" cx="115.1" cy="270.4" r="8.2"/><path fill="#F8F6EF" d="M122.4 270.6c0 4-3.3-3.3-7.3-3.3s-7.3 7.3-7.3 3.3 3.3-7.3 7.3-7.3 7.3 3.3 7.3 7.3z"/></g></svg>