<svg xmlns="http://www.w3.org/2000/svg" xmlns:xlink="http://www.w3.org/1999/xlink" viewBox="0 0 432 432"><path fill="#D4CFB8" d="M368.7 78.5H61.1c-3.2 0-5.8 2.6-5.8 5.8v258.5c0 3.2 2.6 5.8 5.8 5.8h307.6c3.2 0 5.8-2.6 5.8-5.8V84.3c-.1-3.2-2.7-5.8-5.8-5.8z"/><path fill="#EAEAE3" d="M368.7 78.5H61.1c-3.2 0-5.8 2.6-5.8 5.8V91h319.1v-6.7c0-3.2-2.6-5.8-5.7-5.8z"/><path fill="#FFFFFA" d="M368.7 329.4H61.1c-3.2 0-5.8-2.6-5.8-5.8V85.2h319.1v238.4c0 3.2-2.6 5.8-5.7 5.8z"/><path fill="#D4CFB8" d="M368.7 348.6H61.1c-3.2 0-5.8-2.6-5.8-5.8v-19.2h319.1v19.2c0 3.2-2.6 5.8-5.7 5.8z"/><defs><path id="a" d="M164.4 329.4H55.3V85.2h180.4l-26.5 90.6 109.8 2.7-14.5 49.4-111.6 3.7z"/></defs><clipPath id="b"><use xlink:href="#a" overflow="visible"/></clipPath><g clip-path="url(#b)"><path fill="none" stroke="#1A1B16" stroke-width="5" stroke-miterlimit="10" d="M278.7 223.8h-181c-11.3 0-20.6-9.3-20.6-20.6s9.3-20.6 20.6-20.6h180.9c11.3 0 20.6 9.3 20.6 20.6.1 11.3-9.2 20.6-20.5 20.6z"/><path fill="#1A1B16" d="M378.3 171.3c17.7 0 32.2 14.5 32.2 32.2s-14.5 32.2-32.2 32.2H95.5c-17.7 0-32.2-14.5-32.2-32.2s14.5-32.2 32.2-32.2h282.8m0-5.3H95.5C74.8 166 58 182.8 58 203.4c0 20.7 16.8 37.4 37.4 37.4h282.8c20.7 0 37.4-16.8 37.4-37.4.2-20.6-16.6-37.4-37.3-37.4z"/><path fill="#1A1B16" d="M486.6 159.4c24.4 0 44.3 19.9 44.3 44.3S511 248 486.6 248H97c-24.4 0-44.3-19.9-44.3-44.3s19.9-44.3 44.3-44.3h389.6m0-5.8H97c-13.3 0-25.9 5.2-35.4 14.7s-14.7 22.1-14.7 35.4c0 13.3 5.2 25.9 14.7 35.4s22.1 14.7 35.4 14.7h389.6c13.3 0 25.9-5.2 35.4-14.7s14.7-22.1 14.7-35.4c0-13.3-5.2-25.9-14.7-35.4s-22.1-14.7-35.4-14.7z"/><path fill="#1A1B16" d="M588.4 148c30.7 0 55.9 25.1 55.9 55.9 0 30.7-25.1 55.9-55.9 55.9H96.9c-30.7 0-55.9-25.1-55.9-55.9 0-30.7 25.1-55.9 55.9-55.9h491.5m0-7.2H96.9c-16.8 0-32.6 6.6-44.6 18.5-11.9 12-18.5 27.8-18.5 44.6s6.6 32.6 18.5 44.6c12 12 27.8 18.5 44.6 18.5h491.5c16.8 0 32.6-6.6 44.6-18.5 12-12 18.5-27.8 18.5-44.6s-6.6-32.6-18.5-44.6c-12-11.9-27.8-18.5-44.6-18.5z"/><path fill="#1A1B16" d="M686.4 137c36.9 0 67.1 30.2 67.1 67.1s-30.2 67.1-67.1 67.1H96.2c-36.9 0-67.1-30.2-67.1-67.1S59.3 137 96.2 137h590.2m0-8.7H96.2c-10.2 0-20.1 2-29.5 6-9 3.8-17.1 9.3-24.1 16.2-6.9 7-12.4 15-16.2 24.1-4 9.3-6 19.3-6 29.5s2 20.1 6 29.5c3.8 9 9.3 17.1 16.2 24.1 7 7 15 12.4 24.1 16.2 9.3 4 19.3 6 29.5 6h590.2c10.2 0 20.1-2 29.5-6 9-3.8 17.1-9.3 24.1-16.2 7-7 12.4-15 16.2-24.1 4-9.3 6-19.3 6-29.5s-2-20.1-6-29.5c-3.8-9-9.3-17.1-16.2-24.1-7-7-15-12.4-24.1-16.2-9.4-4-19.3-6-29.5-6z"/><path fill="#1A1B16" d="M786.3 125c43.3 0 78.8 35.4 78.8 78.8 0 43.3-35.4 78.8-78.8 78.8H93.7c-43.3 0-78.8-35.4-78.8-78.8 0-43.3 35.4-78.8 78.8-78.8h692.6m0-8.7H93.7c-11.8 0-23.2 2.3-34 6.9-10.4 4.4-19.8 10.7-27.8 18.7s-14.4 17.4-18.7 27.8c-4.6 10.8-6.9 22.2-6.9 34s2.3 23.2 6.9 34c4.4 10.4 10.7 19.8 18.7 27.8s17.4 14.4 27.8 18.7c10.8 4.6 22.2 6.9 34 6.9h692.6c11.8 0 23.2-2.3 34-6.9 10.4-4.4 19.8-10.7 27.8-18.7s14.4-17.4 18.7-27.8c4.6-10.8 6.9-22.2 6.9-34s-2.3-23.2-6.9-34c-4.4-10.4-10.7-19.8-18.7-27.8s-17.4-14.4-27.8-18.7c-10.8-4.6-22.2-6.9-34-6.9z"/><path fill="#1A1B16" d="M884.7 113.6c49.6 0 90.1 40.6 90.1 90.1 0 49.6-40.6 90.1-90.1 90.1H91.9c-49.6 0-90.2-40.5-90.2-90.1 0-49.5 40.6-90.1 90.2-90.1h792.8m0-12.5H91.9c-13.8 0-27.2 2.7-39.9 8.1-12.2 5.2-23.2 12.6-32.6 22s-16.8 20.4-22 32.6c-5.4 12.6-8.1 26.1-8.1 39.9s2.7 27.2 8.1 39.9c5.2 12.2 12.6 23.2 22 32.6s20.4 16.8 32.6 22c12.6 5.4 26.1 8.1 39.9 8.1h792.8c13.8 0 27.2-2.7 39.9-8.1 12.2-5.2 23.2-12.6 32.6-22 9.4-9.4 16.8-20.4 22-32.6 5.4-12.6 8.1-26.1 8.1-39.9s-2.7-27.2-8.1-39.9c-5.2-12.2-12.6-23.2-22-32.6s-20.4-16.8-32.6-22c-12.7-5.4-26.1-8.1-39.9-8.1z"/></g><g><circle fill="#1A1E1D" cx="256.8" cy="132.1" r="19"/><circle fill="#1A1E1D" cx="333.7" cy="132.1" r="19"/><circle fill="#1A1E1D" cx="333.7" cy="200.6" r="20.2"/><circle fill="#1A1E1D" cx="333.7" cy="273.6" r="21.1"/><circle fill="#1A1E1D" cx="256.8" cy="273.6" r="21.1"/><circle fill="#2B2F3A" cx="256.8" cy="129.7" r="19"/><path opacity=".23" fill="#C3C9D7" d="M256.8 112.8c9.1 0 16.5 7.4 16.5 16.5s-7.4-4.1-16.5-4.1-16.5 13.2-16.5 4.1 7.4-16.5 16.5-16.5z"/><circle fill="#2B2F3A" cx="333.7" cy="129.7" r="19"/><path opacity=".23" fill="#C3C9D7" d="M333.2 112.8c9.1 0 16.5 7.4 16.5 16.5s-7.4-4.1-16.5-4.1-16.5 13.2-16.5 4.1 7.4-16.5 16.5-16.5z"/><circle fill="#2B2F3A" cx="333.7" cy="198.2" r="20.2"/><path opacity=".23" fill="#C3C9D7" d="M333.2 179.7c9.8 0 17.7 7.9 17.7 17.7s-7.9-4.4-17.7-4.4c-9.8 0-17.7 14.2-17.7 4.4 0-9.7 8-17.7 17.7-17.7z"/><circle fill="#2B2F3A" cx="333.7" cy="271.2" r="21.1"/><path opacity=".23" fill="#C3C9D7" d="M333.2 252c10 0 18.2 8.1 18.2 18.2s-8.1-4.5-18.2-4.5-18.2 14.6-18.2 4.5 8.2-18.2 18.2-18.2z"/><circle fill="#2B2F3A" cx="256.8" cy="271.2" r="21.1"/><path opacity=".23" fill="#C3C9D7" d="M256.7 252c10 0 18.2 8.1 18.2 18.2s-8.1-4.5-18.2-4.5-18.2 14.6-18.2 4.5 8.2-18.2 18.2-18.2z"/><circle fill="#F8F8E5" cx="106.7" cy="273.2" r="10.7"/><path fill="#BDBBB8" d="M99.2 280.8c-4.2-4.2 8.2 1.4 12.4-2.8s-1.4-16.5 2.8-12.4 4.2 11 0 15.1-11 4.3-15.2.1z"/><circle fill="#1A1E1D" cx="110" cy="104.7" r="6"/><circle fill="#EC2227" cx="110" cy="103.5" r="4.8"/><path fill="#F26974" d="M113.9 102.6c0 2.2-1.7 0-3.9 0s-3.9 2.2-3.9 0 1.7-3.9 3.9-3.9 3.9 1.7 3.9 3.9z"/><circle fill="#889084" cx="105.2" cy="272.2" r="8.7"/><circle fill="#B9B7AC" cx="104.7" cy="271.2" r="8.7"/><circle fill="#F8F8E5" cx="104.2" cy="270.7" r="8.2"/><path fill="#F9F8F0" d="M111.5 270.9c0 4-3.3-3.3-7.3-3.3s-7.3 7.3-7.3 3.3 3.3-7.3 7.3-7.3 7.3 3.2 7.3 7.3z"/><path fill="#2B2F3A" d="M256.8 129.9v-.2c-.1-.4.1-.9.6-1.1l21.5-5.6c.4-.1.9.1 1.1.6v.2c.1.4-.1.9-.6 1.1l-21.5 5.6c-.5.1-1-.2-1.1-.6zM333.8 129.8l-.2-.1c-.4-.3-.4-.8-.2-1.2l13.3-17.7c.3-.4.8-.4 1.2-.2l.2.1c.4.3.4.8.2 1.2L335 129.6c-.3.4-.8.5-1.2.2zM333.8 198l-.2-.1c-.4-.3-.4-.8-.2-1.2l13.3-17.7c.3-.4.8-.4 1.2-.2l.2.1c.4.3.4.8.2 1.2L335 197.8c-.3.4-.8.4-1.2.2zM333.4 271.4c.3-.5.8-.7 1.2-.4l21.3 12c.4.2.6.8.3 1.2v.1c-.2.4-.8.6-1.2.3l-21.3-12c-.4-.2-.5-.7-.3-1.2zM231.5 278.8v-.1c-.1-.5.1-1 .6-1.1l23.5-7c.5-.1 1 .1 1.1.6v.1c.1.5-.1 1-.6 1.1l-23.5 6.9c-.4.2-.9 0-1.1-.5z"/></g></svg>