<svg xmlns="http://www.w3.org/2000/svg" viewBox="0 0 432 432"><path fill="#F5F4ED" d="M358.7 347H59.6c-5.4 0-9.8-4.4-9.8-9.8V94.6c0-5.4 4.4-9.8 9.8-9.8h299.1c5.4 0 9.8 4.4 9.8 9.8v242.6c0 5.4-4.4 9.8-9.8 9.8z"/><path fill="#F15C45" d="M352.9 341.9H65.4c-5.2 0-9.4-4.2-9.4-9.4V99.3c0-5.2 4.2-9.4 9.4-9.4h287.5c5.2 0 9.4 4.2 9.4 9.4v233.2c0 5.2-4.2 9.4-9.4 9.4z"/><path fill="#D02627" d="M325.4 165.5h32.4v11.7h-32.4zM325.4 188.2h32.4v11.7h-32.4zM325.4 210.2h32.4v11.7h-32.4zM324.7 126.8h33.6v27.8h-33.6z"/><path fill="#FFF" d="M346.5 236.7h-10.3c-6.9 0-12.5-5.6-12.5-12.5v-97.5c0-6.9 5.6-12.5 12.5-12.5h10.3c6.9 0 12.5 5.6 12.5 12.5v97.5c-.1 6.9-5.7 12.5-12.5 12.5zm-10.4-120.1c-5.6 0-10.1 4.5-10.1 10.1v97.5c0 5.6 4.5 10.1 10.1 10.1h10.3c5.6 0 10.1-4.5 10.1-10.1v-97.5c0-5.6-4.5-10.1-10.1-10.1h-10.3zM136.4 236.7c-26.3 0-52.3-2.7-75.1-7.7l-.9-.2V122.2l.9-.2c22.8-5 48.8-7.7 75.1-7.7 24.5 0 47.9 2.2 69.6 6.5l.9.2v109l-.9.2c-21.7 4.3-45.1 6.5-69.6 6.5zM62.7 227c22.4 4.9 47.9 7.4 73.7 7.4 24 0 46.9-2.1 68.2-6.3V122.9c-21.3-4.2-44.2-6.3-68.2-6.3-25.8 0-51.2 2.6-73.7 7.4v103z"/><path fill="#FFF" d="M283.7 236.7c-15.9 0-31.6-2.7-45.4-7.7l-.8-.3V122.3l.8-.3c13.8-5 29.5-7.7 45.4-7.7 14.8 0 29 2.2 42.1 6.6l.8.3V230l-.8.3c-13.2 4.2-27.3 6.4-42.1 6.4zm-43.9-9.6c13.4 4.8 28.5 7.3 43.8 7.3 14.2 0 27.9-2.1 40.5-6.2V122.8c-12.7-4.1-26.3-6.2-40.5-6.2-15.3 0-30.5 2.5-43.8 7.3v103.2z"/><path fill="#F4F4F4" d="M61.6 134.7h263.3v1.6H61.6zM61.6 143.8h263.3v1.6H61.6zM61.6 152.9h263.3v1.6H61.6zM61.6 162h263.3v1.6H61.6zM61.6 171.1h263.3v1.6H61.6zM61.6 180.2h263.3v1.6H61.6zM61.6 189.3h263.3v1.6H61.6zM61.6 198.4h263.3v1.6H61.6zM61.6 207.6h263.3v1.6H61.6z"/><path d="M81.2 219.5c-.9 0-1.6-.7-1.6-1.6v-88.1c0-.9.7-1.6 1.6-1.6.9 0 1.6.7 1.6 1.6V218c-.1.8-.8 1.5-1.6 1.5zM110.9 219.5c-.9 0-1.6-.7-1.6-1.6v-88.1c0-.9.7-1.6 1.6-1.6s1.6.7 1.6 1.6V218c0 .8-.7 1.5-1.6 1.5zM139.1 219.5c-.9 0-1.6-.7-1.6-1.6v-88.1c0-.9.7-1.6 1.6-1.6s1.6.7 1.6 1.6V218c0 .8-.7 1.5-1.6 1.5zM166.6 219.5c-.9 0-1.6-.7-1.6-1.6v-88.1c0-.9.7-1.6 1.6-1.6.9 0 1.6.7 1.6 1.6V218c-.1.8-.8 1.5-1.6 1.5zM195.6 219.5c-.9 0-1.6-.7-1.6-1.6v-88.1c0-.9.7-1.6 1.6-1.6.9 0 1.6.7 1.6 1.6V218c-.1.8-.8 1.5-1.6 1.5zM251.2 219.5c-.9 0-1.6-.7-1.6-1.6v-88.1c0-.9.7-1.6 1.6-1.6s1.6.7 1.6 1.6V218c0 .8-.7 1.5-1.6 1.5zM279.4 219.5c-.9 0-1.6-.7-1.6-1.6v-88.1c0-.9.7-1.6 1.6-1.6s1.6.7 1.6 1.6V218c0 .8-.7 1.5-1.6 1.5zM308.4 219.5c-.9 0-1.6-.7-1.6-1.6v-88.1c0-.9.7-1.6 1.6-1.6s1.6.7 1.6 1.6V218c0 .8-.7 1.5-1.6 1.5z"/><path fill="#F15C45" d="M227.1 235.6h-10.3c-6.2 0-11.3-5.1-11.3-11.3v-97.5c0-6.2 5.1-11.3 11.3-11.3h10.3c6.2 0 11.3 5.1 11.3 11.3v97.5c0 6.2-5.1 11.3-11.3 11.3z"/><path fill="#FFF" d="M227.1 236.7h-10.3c-6.9 0-12.5-5.6-12.5-12.5v-97.5c0-6.9 5.6-12.5 12.5-12.5h10.3c6.9 0 12.5 5.6 12.5 12.5v97.5c0 6.9-5.6 12.5-12.5 12.5zm-10.3-120.1c-5.6 0-10.1 4.5-10.1 10.1v97.5c0 5.6 4.5 10.1 10.1 10.1h10.3c5.6 0 10.1-4.5 10.1-10.1v-97.5c0-5.6-4.5-10.1-10.1-10.1h-10.3zM81.2 171c-2.4 0-4.5-2-4.5-4.5V162c0-2.4 2-4.5 4.5-4.5 2.4 0 4.5 2 4.5 4.5v4.5c-.1 2.5-2.1 4.5-4.5 4.5zM110.9 207.4c-2.4 0-4.5-2-4.5-4.5v-4.5c0-2.4 2-4.5 4.5-4.5 2.4 0 4.5 2 4.5 4.5v4.5c0 2.5-2 4.5-4.5 4.5zM139.1 198.4c-2.4 0-4.5-2-4.5-4.5v-4.5c0-2.4 2-4.5 4.5-4.5 2.4 0 4.5 2 4.5 4.5v4.5c0 2.5-2 4.5-4.5 4.5zM166.6 147.5c-2.4 0-4.5-2-4.5-4.5v-4.5c0-2.4 2-4.5 4.5-4.5 2.4 0 4.5 2 4.5 4.5v4.5c-.1 2.5-2.1 4.5-4.5 4.5zM195.6 161.4c-2.4 0-4.5-2-4.5-4.5v-4.5c0-2.4 2-4.5 4.5-4.5 2.4 0 4.5 2 4.5 4.5v4.5c-.1 2.5-2.1 4.5-4.5 4.5zM251.2 211.5c-2.4 0-4.5-2-4.5-4.5v-4.5c0-2.4 2-4.5 4.5-4.5 2.4 0 4.5 2 4.5 4.5v4.5c-.1 2.5-2.1 4.5-4.5 4.5zM279.4 212.9c-2.4 0-4.5-2-4.5-4.5V204c0-2.4 2-4.5 4.5-4.5 2.4 0 4.5 2 4.5 4.5v4.5c-.1 2.4-2.1 4.4-4.5 4.4zM308.4 216.2c-2.4 0-4.5-2-4.5-4.5v-4.5c0-2.4 2-4.5 4.5-4.5 2.4 0 4.5 2 4.5 4.5v4.5c-.1 2.5-2.1 4.5-4.5 4.5z"/><circle fill="#FFF" cx="221.9" cy="152.8" r="10.7"/><circle fill="#FFF" cx="221.9" cy="209.3" r="10.7"/><circle fill="#EC2227" cx="221.9" cy="184.4" r="6.3"/><path fill="#F26974" d="M227.1 183.1c0 2.9-2.3 0-5.1 0s-5.1 2.9-5.1 0 2.3-5.1 5.1-5.1 5.1 2.3 5.1 5.1z"/><circle fill="#E2D0D2" cx="221.9" cy="128.3" r="6.3"/><path fill="#F8E5E6" d="M227.1 127.1c0 2.9-2.3 0-5.1 0s-5.1 2.9-5.1 0 2.3-5.1 5.1-5.1 5.1 2.3 5.1 5.1z"/><circle fill="#EC2227" cx="163.9" cy="301.3" r="5.4"/><path fill="#F26974" d="M168.2 300.3c0 2.4-1.9 0-4.3 0s-4.3 2.4-4.3 0 1.9-4.3 4.3-4.3 4.3 1.9 4.3 4.3z"/><circle fill="#EC2227" cx="252.4" cy="301.3" r="5.4"/><path fill="#F26974" d="M256.8 300.3c0 2.4-1.9 0-4.3 0s-4.3 2.4-4.3 0 1.9-4.3 4.3-4.3 4.3 1.9 4.3 4.3z"/><circle fill="#F8F8E5" cx="105.7" cy="306.2" r="15.1"/><path fill="#BDBBB8" d="M95 317c-5.9-5.9 11.6 2 17.5-3.9s-2-23.4 3.9-17.5 5.9 15.5 0 21.4-15.5 5.9-21.4 0z"/><circle fill="#889084" cx="105.4" cy="306.1" r="12.3"/><circle fill="#B9B7AC" cx="105.1" cy="308.5" r="12.3"/><circle fill="#F8F8E5" cx="104.3" cy="311" r="12.4"/><path fill="#F9F8F0" d="M115.4 311.2c0 6.1-5-5-11.1-5s-11.1 11.1-11.1 5 5-11.1 11.1-11.1 11.1 5 11.1 11.1z"/><circle fill="#F8F8E5" cx="309.5" cy="306.2" r="15.1"/><path fill="#BDBBB8" d="M320.1 317c-5.9 5.9-15.5 5.9-21.4 0-5.9-5.9 11.6 2 17.5-3.9s-2-23.4 3.9-17.5c5.9 5.9 5.9 15.5 0 21.4z"/><circle fill="#889084" cx="309.8" cy="306.1" r="12.3"/><circle fill="#B9B7AC" cx="310" cy="308.5" r="12.3"/><circle fill="#F8F8E5" cx="310.8" cy="311" r="12.4"/><path fill="#F9F8F0" d="M310.8 300.2c6.1 0 11.1 5 11.1 11.1s-5-5-11.1-5-11.1 11.1-11.1 5 4.9-11.1 11.1-11.1z"/><circle fill="#B07732" cx="342.2" cy="227.8" r="3.8"/><path fill="#CA8B4A" d="M345.2 227.1c0 1.7-1.4 0-3.1 0s-3.1 1.7-3.1 0 1.4-3.1 3.1-3.1 3.1 1.4 3.1 3.1z"/><g><circle fill="#B07732" cx="342.2" cy="216.5" r="3.8"/><path fill="#CA8B4A" d="M345.2 215.8c0 1.7-1.4 0-3.1 0s-3.1 1.7-3.1 0 1.4-3.1 3.1-3.1 3.1 1.4 3.1 3.1z"/></g><g><circle fill="#B07732" cx="342.2" cy="205.2" r="3.8"/><path fill="#CA8B4A" d="M345.2 204.5c0 1.7-1.4 0-3.1 0s-3.1 1.7-3.1 0 1.4-3.1 3.1-3.1 3.1 1.4 3.1 3.1z"/></g><g><circle fill="#B07732" cx="342.2" cy="193.9" r="3.8"/><path fill="#CA8B4A" d="M345.2 193.2c0 1.7-1.4 0-3.1 0s-3.1 1.7-3.1 0 1.4-3.1 3.1-3.1 3.1 1.4 3.1 3.1z"/></g><g><circle fill="#B07732" cx="342.2" cy="182.6" r="3.8"/><path fill="#CA8B4A" d="M345.2 181.9c0 1.7-1.4 0-3.1 0s-3.1 1.7-3.1 0 1.4-3.1 3.1-3.1 3.1 1.4 3.1 3.1z"/></g><g><circle fill="#B07732" cx="342.2" cy="171.3" r="3.8"/><path fill="#CA8B4A" d="M345.2 170.6c0 1.7-1.4 0-3.1 0s-3.1 1.7-3.1 0 1.4-3.1 3.1-3.1 3.1 1.4 3.1 3.1z"/></g><g><circle fill="#B07732" cx="342.2" cy="160" r="3.8"/><path fill="#CA8B4A" d="M345.2 159.3c0 1.7-1.4 0-3.1 0s-3.1 1.7-3.1 0 1.4-3.1 3.1-3.1 3.1 1.4 3.1 3.1z"/></g><g><circle fill="#B07732" cx="342.2" cy="148.7" r="3.8"/><path fill="#CA8B4A" d="M345.2 148c0 1.7-1.4 0-3.1 0s-3.1 1.7-3.1 0 1.4-3.1 3.1-3.1 3.1 1.4 3.1 3.1z"/></g><g><circle fill="#F2F2F2" cx="344.7" cy="123.8" r="19.3"/></g><g><circle fill="#FFF" cx="344.7" cy="120.7" r="19.3"/></g></svg>