<svg xmlns="http://www.w3.org/2000/svg" viewBox="0 0 432 432"><path fill="#D2CEB7" d="M368.5 78.4H61.1c-3.2 0-5.8 2.6-5.8 5.8v258.3c0 3.2 2.6 5.8 5.8 5.8h307.4c3.2 0 5.8-2.6 5.8-5.8V84.2c-.1-3.2-2.7-5.8-5.8-5.8z"/><path fill="#E8E9E2" d="M368.5 78.4H61.1c-3.2 0-5.8 2.6-5.8 5.8v6.7h318.9v-6.7c0-3.2-2.6-5.8-5.7-5.8z"/><path fill="#FFFFF9" d="M368.5 329.1H61.1c-3.2 0-5.8-2.6-5.8-5.8V85.1h318.9v238.2c0 3.2-2.6 5.8-5.7 5.8z"/><path fill="#D2CEB7" d="M368.5 348.3H61.1c-3.2 0-5.8-2.6-5.8-5.8v-19.2h318.9v19.2c0 3.2-2.6 5.8-5.7 5.8z"/><g><path fill="#00B58F" d="M68.3 188.6c-3.1 0-5.6-2.5-5.6-5.6v-77.5c0-3.1 2.5-5.6 5.6-5.6h68.6c3.1 0 5.6 2.5 5.6 5.6V183c0 3.1-2.5 5.6-5.6 5.6H68.3z"/><path fill="#232928" d="M136.8 102.8c1.5 0 2.7 1.2 2.7 2.7V183c0 1.5-1.2 2.7-2.7 2.7H68.3c-1.5 0-2.7-1.2-2.7-2.7v-77.5c0-1.5 1.2-2.7 2.7-2.7h68.5m0-5.8H68.3c-4.7 0-8.5 3.8-8.5 8.5V183c0 4.7 3.8 8.5 8.5 8.5h68.6c4.7 0 8.5-3.8 8.5-8.5v-77.5c-.1-4.7-3.9-8.5-8.6-8.5zM349.1 319.8H173.5c-11.4 0-20.7-9.3-20.7-20.7V117.8c0-11.4 9.3-20.7 20.7-20.7h175.6c11.4 0 20.7 9.3 20.7 20.7v181.3c0 11.4-9.4 20.7-20.7 20.7z"/><path fill="#00B58F" d="M68.3 317c-3.1 0-5.6-2.5-5.6-5.6v-77.5c0-3.1 2.5-5.6 5.6-5.6h68.6c3.1 0 5.6 2.5 5.6 5.6v77.5c0 3.1-2.5 5.6-5.6 5.6H68.3z"/><path fill="#232928" d="M136.8 231.2c1.5 0 2.7 1.2 2.7 2.7v77.5c0 1.5-1.2 2.7-2.7 2.7H68.3c-1.5 0-2.7-1.2-2.7-2.7v-77.5c0-1.5 1.2-2.7 2.7-2.7h68.5m0-5.8H68.3c-4.7 0-8.5 3.8-8.5 8.5v77.5c0 4.7 3.8 8.5 8.5 8.5h68.6c4.7 0 8.5-3.8 8.5-8.5v-77.5c-.1-4.7-3.9-8.5-8.6-8.5z"/><g fill="#191E1D"><circle cx="256.7" cy="131.9" r="19"/><circle cx="333.5" cy="131.9" r="19"/><circle cx="333.5" cy="200.4" r="20.2"/><circle cx="333.5" cy="273.4" r="21.1"/><circle cx="256.7" cy="273.4" r="21.1"/></g><circle fill="#2B2F39" cx="256.7" cy="129.5" r="19"/><circle fill="#2B2F39" cx="333.5" cy="129.5" r="19"/><circle fill="#2B2F39" cx="333.5" cy="198" r="20.2"/><circle fill="#2B2F39" cx="333.5" cy="271" r="21.1"/><circle fill="#2B2F39" cx="256.7" cy="271" r="21.1"/><circle fill="#191E1D" cx="256.5" cy="180" r="6"/><circle fill="#E1F3F8" cx="324.3" cy="209.9" r="2.3"/><circle fill="#E1F3F8" cx="319" cy="265.1" r="2.3"/><circle fill="#E1F3F8" cx="242.2" cy="276.1" r="2.3"/><circle fill="#E1F3F8" cx="322.4" cy="120.6" r="2.3"/><circle fill="#E1F3F8" cx="261.9" cy="115.7" r="2.3"/><circle fill="#EB2027" cx="256.5" cy="178.8" r="4.8"/><path fill="#F06874" d="M260.4 177.8c0 2.2-1.7 0-3.9 0s-3.9 2.2-3.9 0 1.7-3.9 3.9-3.9c2.1.1 3.9 1.8 3.9 3.9z"/><circle fill="#F7F7E4" cx="106.7" cy="273" r="10.7"/><path fill="#BBBAB7" d="M99.2 280.6c-4.2-4.2 8.2 1.4 12.3-2.8s-1.4-16.5 2.8-12.3 4.2 10.9 0 15.1-10.9 4.1-15.1 0z"/><circle fill="#191E1D" cx="110" cy="104.6" r="6"/><circle fill="#EB2027" cx="110" cy="103.4" r="4.8"/><path fill="#F06874" d="M113.9 102.4c0 2.2-1.7 0-3.9 0s-3.9 2.2-3.9 0 1.7-3.9 3.9-3.9 3.9 1.8 3.9 3.9z"/><circle fill="#878F83" cx="105.2" cy="271.9" r="8.6"/><circle fill="#B8B6AA" cx="104.7" cy="271" r="8.6"/><circle fill="#F7F7E4" cx="104.2" cy="270.5" r="8.2"/><path fill="#F8F6EF" d="M111.5 270.6c0 4-3.3-3.3-7.3-3.3s-7.3 7.3-7.3 3.3 3.3-7.3 7.3-7.3 7.3 3.3 7.3 7.3z"/></g></svg>