<svg xmlns="http://www.w3.org/2000/svg" viewBox="0 0 432 432"><path fill="#D2CEB7" d="M368.5 79.2H61.6c-3.2 0-5.8 2.6-5.8 5.8v258c0 3.2 2.6 5.8 5.8 5.8h306.9c3.2 0 5.8-2.6 5.8-5.8V84.9c0-3.1-2.6-5.7-5.8-5.7z"/><path fill="#E8E9E2" d="M368.5 79.2H61.6c-3.2 0-5.8 2.6-5.8 5.8v6.7h318.4V85c.1-3.2-2.5-5.8-5.7-5.8z"/><path fill="#FFFFF9" d="M368.5 329.5H61.6c-3.2 0-5.8-2.6-5.8-5.8V85.9h318.4v237.8c.1 3.2-2.5 5.8-5.7 5.8z"/><path fill="#D2CEB7" d="M368.5 348.7H61.6c-3.2 0-5.8-2.6-5.8-5.8v-19.2h318.4v19.2c.1 3.2-2.5 5.8-5.7 5.8z"/><g><g fill="#232928"><path d="M62.4 311.6c0 3.2 2.6 5.8 5.8 5.8h219.7c3.2 0 5.8-2.6 5.8-5.8v-71.3H62.4v71.3zM293.7 106.4c0-3.2-2.6-5.8-5.8-5.8H68.2c-3.2 0-5.8 2.6-5.8 5.8V201h231.2v-94.6z"/></g></g><g><g fill="#191E1D"><circle cx="256.9" cy="132.6" r="18.9"/><circle cx="333.6" cy="132.6" r="18.9"/><circle cx="333.6" cy="201" r="20.1"/><circle cx="333.6" cy="273.9" r="21.1"/><circle cx="256.9" cy="273.9" r="21.1"/></g><circle fill="#2B2F39" cx="256.9" cy="130.2" r="18.9"/><circle fill="#2B2F39" cx="333.6" cy="130.2" r="18.9"/><circle fill="#2B2F39" cx="333.6" cy="198.6" r="20.1"/><circle fill="#2B2F39" cx="333.6" cy="271.5" r="21.1"/><circle fill="#2B2F39" cx="256.9" cy="271.5" r="21.1"/><circle fill="#191E1D" cx="256.7" cy="180.6" r="6"/><circle fill="#E1F3F8" cx="324.4" cy="210.5" r="2.3"/><circle fill="#E1F3F8" cx="319.1" cy="265.6" r="2.3"/><circle fill="#E1F3F8" cx="242.4" cy="276.6" r="2.3"/><circle fill="#E1F3F8" cx="322.5" cy="121.3" r="2.3"/><circle fill="#E1F3F8" cx="262.1" cy="116.5" r="2.3"/><circle fill="#EB2027" cx="256.7" cy="179.4" r="4.8"/><path fill="#F06874" d="M260.6 178.5c0 2.2-1.7 0-3.9 0s-3.9 2.2-3.9 0 1.7-3.9 3.9-3.9c2.1 0 3.9 1.7 3.9 3.9z"/><circle fill="#F7F7E4" cx="107.2" cy="273.5" r="10.6"/><path fill="#BBBAB7" d="M99.6 281c-4.2-4.2 8.2 1.4 12.3-2.8 4.2-4.2-1.4-16.5 2.8-12.3 4.2 4.2 4.2 10.9 0 15.1-4.1 4.2-10.9 4.2-15.1 0z"/><circle fill="#191E1D" cx="110.4" cy="105.3" r="6"/><circle fill="#EB2027" cx="110.4" cy="104.1" r="4.8"/><path fill="#F06874" d="M114.3 103.2c0 2.2-1.7 0-3.9 0s-3.9 2.2-3.9 0 1.7-3.9 3.9-3.9 3.9 1.7 3.9 3.9z"/><circle fill="#878F83" cx="105.6" cy="272.4" r="8.6"/><circle fill="#B8B6AA" cx="105.2" cy="271.5" r="8.6"/><circle fill="#F7F7E4" cx="104.7" cy="271" r="8.2"/><path fill="#F8F6EF" d="M112 271.1c0 4-3.3-3.3-7.3-3.3s-7.3 7.3-7.3 3.3 3.3-7.3 7.3-7.3 7.3 3.3 7.3 7.3z"/></g></svg>