<svg xmlns="http://www.w3.org/2000/svg" viewBox="0 0 1922.4 619.2">
  <!-- Blackstar Amplification official logo — fill="currentColor" for theming -->
  <g fill="currentColor">
    <path d="M1880.4,11.9c-21.1,0-38.2,17.1-38.2,38.2s17.1,38.2,38.2,38.2c21.1,0,38.2-17.1,38.2-38.2S1901.4,11.9,1880.4,11.9z M1880.4,82.7c-18,0-32.7-14.6-32.7-32.7c0-18,14.6-32.7,32.7-32.7c18,0,32.7,14.7,32.7,32.7C1913,68.1,1898.4,82.7,1880.4,82.7z"/>
    <polygon points="1880.4,22.3 1886.6,41.6 1906.8,41.6 1890.4,53.4 1896.7,72.7 1880.4,60.7 1864,72.7 1870.3,53.4 1853.9,41.6 1874.1,41.6"/>
    <path d="M252.1,142.4c-4.2-5.3-10-9.7-17.2-13.3c4.6-2.9,8.5-6.2,11.3-10.2c6.6-9.2,9.8-23.9,9.8-45c0-27.9-6.7-46.3-20.4-56.1 c-12.8-9.2-36.9-13.6-73.5-13.6h-150H3.8v263.1H151c44,0,72.9-5.1,88.4-15.5c16.3-11,24.5-31.7,24.5-61.7 C263.9,168.1,260,152.4,252.1,142.4z M55.6,47.1c13.9,0,92.3,0,92.3,0c36.3,0,46.1,3.6,48.6,5.2c1.9,1.2,6.5,6,6.5,24.7 c0,19.5-4.1,25.8-6.6,27.7c-2.8,2.2-10.8,6-32.9,6c0,0-93.6,0-107.9,0C55.6,98.9,55.6,58.9,55.6,47.1z M202.8,218.9 c-3.3,2.3-12.6,6.1-38,6.1c0,0-94.9,0-109.2,0c0-12.2,0-60.4,0-72.6c13.8,0,86.9,0,86.9,0c42.6,0,55.4,4.1,59.2,6.6 c7,4.5,8.5,17.5,8.5,27.6C210.2,211.2,205,217.4,202.8,218.9z"/>
    <path d="M328.6,4.2h-41.8v263.1h50.1V4.2H328.6z"/>
    <path d="M560.9,103.4c-3.4-7.3-9.3-13.5-17.3-18.3c-7.2-4.1-17.4-6.9-31.1-8.6c-12.8-1.6-31.6-2.4-55.9-2.4 c-32.4,0-54.9,3.4-68.9,10.4c-15.3,7.7-23.4,21.4-23.4,39.4v12.3h49.8l0.2-8c0.2-7.8,3.4-10.4,6.1-11.7 c3.2-1.6,12.5-4.2,38.4-4.2c37.2,0,47.5,3.6,50.1,5.1c5.5,3.2,6.7,12.8,6.7,20.3c0,0,0,7,0,14c-4.3-2.1-9-3.9-14.3-5.2 c-11.6-2.8-27.7-4.2-49.2-4.2c-20.5,0-35.8,0.8-46.9,2.3c-11.9,1.7-20.9,4.6-27.4,8.8c-7.9,5.1-13.7,12.1-17.1,20.6 c-3.2,8-4.8,18.5-4.8,32c0,24.1,7.4,41.1,22,50.5c13.6,8.8,38.5,13,76,13c21,0,37.1-1.7,49.3-5.2c5.8-1.7,10.9-3.9,15.4-6.6 c0,0.3,0.7,9.4,0.7,9.4h46.5V137C565.8,121.5,564.2,110.5,560.9,103.4z M515.7,214.7c0,4.2-6.1,7.2-11.3,9 c-10.3,3.6-25.7,5.4-45.9,5.4c-28.9,0-39.4-3.6-43-5.7c-5.1-3-7.7-9.8-7.7-20.3c0-13.3,5.2-16.3,7-17.3c3.4-2,13.2-5.3,40.1-5.3 c23,0,39.8,1.8,49.9,5.3c11,3.9,11,8.6,11,10.4v18.5H515.7z"/>
    <path d="M684.4,74.2c-36.1,0-61,5.5-76.1,16.8c-15.6,11.7-23.6,31.9-23.6,60.1v41.2c0,28.2,8,48.5,23.7,60.3 c15.2,11.4,40.2,17,76.5,17h15.8c34.7,0,59.2-5.3,74.8-16.2c16.3-11.4,24.6-30.2,24.6-55.7v-11.6h-51.3v11.3 c0,12.6-2.8,21.1-8.4,25.3c-4.4,3.2-14.9,7.1-40.1,7.1h-15.8c-27.4,0-36.9-4.4-40-7.1c-2.3-2-7.8-9.4-7.8-36.1v-29.7 c0-26.1,5.4-33.4,7.7-35.3c3.1-2.6,12.5-7,40.2-7h15.8c26.3,0,36.1,4,39.6,6.4c5.4,3.7,8.4,11.2,8.9,22.4l0.4,7.9l51.1-0.2 l-0.2-8.5c-0.7-24.2-9.3-42-25.8-53c-15.7-10.4-39.9-15.5-73.9-15.5h-16.1V74.2z"/>
    <path d="M863.1,4.2h-41.8v263.1h50.1c0,0,0-66.7,0-81.5c6.6,6.3,85.9,81.5,85.9,81.5h66.8c0,0-100-93.9-111.5-104.7 c11.4-10.2,95.3-86,95.3-86h-63.2c0,0-66.9,61-73.2,66.8c0-16.2,0-139.2,0-139.2L863.1,4.2L863.1,4.2z"/>
    <path d="M1028.8,85.5c-15.7,8.4-23.6,24.1-23.6,46.6c0,13.5,2.2,23.7,6.6,31.4c4.6,7.9,12.1,14,22.4,18.4 c4.6,2,15.4,4.5,57.5,5.5l33.2,1c28.5,1.1,35.6,4.5,37.1,5.6c3,2.1,4.7,7.7,4.7,15.8c0,12.8-4.6,15.5-6.1,16.4 c-2.5,1.5-12.2,4.9-49.8,4.9c-30.8,0-43.4-2.9-48.6-5.3c-3.8-1.8-8.2-5.1-8.2-14.7v-12.3h-50.7v12.9c0,22,8,37.6,23.9,46.3 c14.4,7.9,41.9,11.8,84.1,11.8c19.9,0,35.7-0.5,47-1.6c12.2-1.2,21-3.1,26.9-6c12.2-5.7,20.7-12.5,25.8-20.5 c5.1-8,7.6-19,7.6-33.5c0-14.3-2.5-25.2-7.7-33.2c-5.2-8.2-13.9-14.4-25.7-18.6c-5.3-1.9-13.6-3.3-25.2-4.3 c-11-0.9-26.2-1.7-45.2-2.3l-13.7-0.3c-29-0.5-38.8-2.9-42-4.2c-1.9-0.8-2.4-1.8-2.6-2.1c-0.2-0.4-1.2-2.9-1.2-10.9 c0-11.8,4.4-14,5.9-14.8c3.2-1.6,13.3-4.4,44.4-4.4s44.1,2.2,49.5,4c6.9,2.3,7.5,5.5,7.5,8.2v9.9h50.1v-8.3 c0-24.4-12.2-36.2-22.4-41.7c-13.4-7.3-37.2-10.8-72.8-10.8C1072,74.2,1043,77.9,1028.8,85.5z"/>
    <path d="M1293.9,37.1h-41.8c0,0,0,29.1,0,39.5c-8.1,0-27.5,0-27.5,0v38.7c0,0,19.4,0,27.5,0c0,13.7,0,83.9,0,83.9 c0,26.2,5.9,44.2,18,54.9c11.8,10.5,31.3,15.6,59.7,15.6c35.6,0,58.8-4.8,71-14.6c12.7-10.2,18.9-28.5,18.9-55.9v-9.8h-50.6 v13.4c0,14.9-3.5,20-5.5,21.7c-2.3,1.9-9,5.2-27.6,5.2c-18.8,0-25.6-3.4-28-5.4c-3.8-3.2-5.8-10.6-5.8-21.5c0,0,0-73.7,0-87.6 c14.2,0,111.3,0,111.3,0V76.5c0,0-97.1,0-111.3,0c0-10.3,0-39.5,0-39.5h-8.3V37.1z"/>
    <path d="M1636.1,103.4c-3.4-7.3-9.3-13.5-17.3-18.3c-7.2-4.1-17.4-6.9-31.1-8.6c-12.8-1.6-31.6-2.4-55.9-2.4 c-32.4,0-54.9,3.4-68.9,10.4c-15.3,7.7-23.4,21.4-23.4,39.4v12.3h49.8l0.2-8c0.2-7.8,3.4-10.4,6.1-11.7 c3.2-1.6,12.5-4.2,38.4-4.2c37.2,0,47.5,3.6,50.1,5.1c5.5,3.2,6.7,12.8,6.7,20.3c0,0,0,7,0,14c-4.3-2.1-9-3.9-14.3-5.2 c-11.6-2.8-27.7-4.2-49.2-4.2c-20.5,0-35.8,0.8-46.9,2.3c-11.9,1.7-20.9,4.6-27.4,8.8c-7.9,5.1-13.7,12.1-17.1,20.6 c-3.2,8-4.8,18.5-4.8,32c0,24.1,7.4,41.1,22,50.5c13.6,8.8,38.5,13,76,13c21,0,37.1-1.7,49.3-5.2c5.8-1.7,10.9-3.9,15.4-6.6 c0,0.3,0.7,9.4,0.7,9.4h46.5V137C1641,121.5,1639.4,110.5,1636.1,103.4z M1590.9,214.7c0,4.2-6.1,7.2-11.3,9 c-10.3,3.6-25.7,5.4-45.9,5.4c-28.9,0-39.4-3.6-43-5.7c-5.1-3-7.7-9.8-7.7-20.3c0-13.3,5.2-16.3,7-17.3c3.4-2,13.2-5.3,40.1-5.3 c23,0,39.8,1.8,49.9,5.3c11,3.9,11,8.6,11,10.4v18.5H1590.9z"/>
    <path d="M1729,81.1c-4,1.6-7.5,3.8-10.7,6.1c0-0.4,0-10.6,0-10.6h-49.4v190.7h50.7V157.8c0-16,3.4-27.4,10-33.9 c6.7-6.5,18.3-9.8,34.6-9.8c18.1,0,24.8,3.3,27.2,5.3c3.6,3,5.6,10.7,5.6,21.7v13.4h50.7v-9.6c0-25.9-5.8-43.8-17.7-54.7 c-11.7-10.7-30.5-15.9-57.7-15.9C1754.6,74.2,1740.1,76.5,1729,81.1z"/>
    <path d="M503.5,310.9h-1.3h-17.9L448,373.7h15.4c0,0,7.5-13.1,8.6-15c2.3,0,41.6,0,43.8,0c1.1,1.8,8.7,15,8.7,15h15.4 L503.5,310.9z M477.8,348.6c2.9-5,14.6-25.4,15.7-27.2c0.4,0,0.4,0,0.8,0c1,1.8,12.9,22.2,15.8,27.2 C504.6,348.6,483.3,348.6,477.8,348.6z"/>
    <path d="M636.5,310.9c-4.4,0-10,0-10,0s-26.6,44.6-29.9,50.1c-3.3-5.4-30.2-50.1-30.2-50.1s-5.5,0-9.8,0l-0.1-0.2v0.2 c-3.9,0-10,0-10,0v62.8h14.3c0,0,0-36,0-47.4c6.1,10.2,28.3,47.4,28.3,47.4h15c0,0,22.2-37.2,28.3-47.4c0,11.3,0,47.4,0,47.4 h14.3v-62.8c0,0-6.1,0-10,0v-0.2L636.5,310.9z"/>
    <path d="M727.5,314c-4.2-2.1-11.5-3.2-22.3-3.2h-38.5h-2.2v62.8h14.3c0,0,0-19.2,0-22.7c3.7,0,26.4,0,26.4,0 c10.8,0,18.1-1,22.3-3.2c4.6-2.3,6.9-6.6,6.9-12.5v-8.8C734.5,320.6,732.1,316.4,727.5,314z M719.6,335.2c0,2.5-1.1,3.4-2,3.9 c-1.3,0.6-4.4,1.4-12.5,1.4c0,0-22.6,0-26.2,0c0-3.2,0-15.8,0-19c3.7,0,26.2,0,26.2,0c8.6,0,11.6,0.8,12.6,1.3 c0.9,0.5,1.9,1.3,1.9,3.9V335.2z"/>
    <path d="M759.2,310.9H747v62.8h66.2v-10.5c0,0-48,0-51.9,0c0-4,0-52.4,0-52.4h-2.1V310.9z"/>
    <path d="M834.6,310.9h-12.3v62.8h14.5v-62.8H834.6z"/>
    <path d="M913.9,310.9h-59.3v62.8h14.3c0,0,0-23.6,0-27.2c3.9,0,45.7,0,45.7,0v-10.3c0,0-41.8,0-45.7,0c0-2.9,0-11.7,0-14.7 c3.9,0,47.1,0,47.1,0v-10.6L913.9,310.9L913.9,310.9z"/>
    <path d="M941.6,310.9h-12.3v62.8h14.5v-62.8H941.6z"/>
    <path d="M991.5,310.1c-11.9,0-20.1,1.6-25,4.8c-5.1,3.4-7.7,9.2-7.7,17.5v19.8c0,8.2,2.6,14.1,7.7,17.5c4.9,3.2,13.1,4.8,25,4.8 h10.7c12.1,0,20.3-1.3,25-4.1c5.1-2.9,7.7-8.1,7.7-15.4v-6H1020l0.3,3.4v1.6c0,4-1,6.6-3.2,7.9c-1.7,1-5.7,2.2-15.7,2.2h-7.1 c-5.6,0-9.6-0.2-11.9-0.6c-2.1-0.4-3.9-1-5.4-1.9c-1.3-0.8-2.2-1.7-2.7-2.9c-0.4-0.9-0.8-3-0.8-7.9v-16.6c0-4.9,0.5-7.1,0.8-8 c0.5-1.2,1.4-2.1,2.7-2.9c1.5-0.9,3.3-1.5,5.6-1.9c2.4-0.4,6.3-0.6,11.7-0.6h7.1c9.7,0,13.8,1.2,15.5,2.2 c2.1,1.2,3.2,3.6,3.2,7.2v3.8h14.8v-4.7c0-6.9-2.7-11.9-7.9-14.8c-4.9-2.7-13-4.1-24.8-4.1h-10.7V310.1z"/>
    <path d="M1089.7,310.9h-1.2h-17.9l-36.3,62.8h15.4c0,0,7.5-13.1,8.6-15c2.3,0,41.6,0,43.8,0c1.1,1.8,8.7,15,8.7,15h15.4 L1089.7,310.9z M1064,348.6c2.9-5,14.6-25.4,15.7-27.2c0.4,0,0.4,0,0.8,0c1,1.8,12.9,22.2,15.8,27.2 C1090.8,348.6,1069.5,348.6,1064,348.6z"/>
    <path d="M1180.6,310.9h-70.8v10.6c0,0,25.5,0,29.2,0c0,4,0,52.2,0,52.2h14.5c0,0,0-48.2,0-52.2c3.7,0,29.3,0,29.3,0v-10.6 L1180.6,310.9L1180.6,310.9z"/>
    <path d="M1200.5,310.9h-12.3v62.8h14.5v-62.8H1200.5z"/>
    <path d="M1291.4,314.8c-5.2-3.2-14-4.7-27-4.7h-11.6c-12.9,0-21.7,1.6-26.9,4.7c-5.5,3.4-8.3,9.2-8.3,17.5v19.9 c0,8.3,2.8,14.2,8.3,17.5c5.2,3.2,14,4.7,26.9,4.7h11.6c12.8,0,21.6-1.5,26.9-4.7c5.5-3.3,8.3-9.2,8.3-17.5v-19.8 C1299.6,324,1296.9,318.1,1291.4,314.8z M1284.7,350.6c0,4.8-0.5,6.9-0.9,7.9c-0.5,1.2-1.4,2.1-2.8,2.9c-1.7,0.9-3.8,1.6-6.3,2 c-2.6,0.4-7.1,0.6-13.4,0.6h-5.7c-6.3,0-10.8-0.2-13.3-0.6c-2.4-0.4-4.5-1.1-6.2-2c-1.4-0.8-2.3-1.7-2.9-3 c-0.4-0.9-0.9-3.1-0.9-7.7v-16.6c0-4.7,0.5-6.9,0.9-7.8c0.5-1.3,1.5-2.2,2.9-3c1.7-0.9,3.8-1.6,6.2-2c2.5-0.4,7-0.6,13.3-0.6h5.7 c6.3,0,10.8,0.2,13.4,0.6c2.4,0.4,4.5,1,6.1,1.9c1.4,0.8,2.3,1.7,2.9,3c0.4,1,0.9,3.1,0.9,7.8v16.6H1284.7z"/>
    <path d="M1391.9,310.9h-12.2c0,0,0,40.3,0,49c-6.4-6.7-46.6-49-46.6-49h-18.7v62.8h14.3c0,0,0-40.4,0-49 c6.4,6.7,46.6,49,46.6,49h18.7v-62.8H1391.9z"/>
    <path d="M59.6,573.4c0,2.3-0.3,5.3-2,6.4c-0.9,0.6-3.6,1.7-10.8,1.7c-7.3,0-10-1.1-11-1.8c-1.4-1-2.1-3.1-2.1-6.4v-27.1h42.2 v-12.4H33.7v-12.2h-2.9H15v12.2H4.5v12.4H15v25.9c0,8.2,2.3,14.1,6.9,17.4c4.4,3.2,11.7,4.8,22.3,4.8c13.4,0,22.1-1.4,26.7-4.4 c4.8-3.2,7.3-9.2,7.3-17.8v-3.3H59.5v4.6H59.6z"/>
    <path d="M164.6,537.9c-5.1-3.2-13.4-4.7-25.4-4.7c-7.8,0-14.2,0.7-19.1,2.1c-2.4,0.7-4.5,1.7-6.3,2.8v-26.7h-2.9h-15v82.4h18.4 v-34.3c0-4.6,1.6-7.9,4.9-9.9c3.7-2.3,9.9-3.4,18.3-3.4c9.2,0,12.6,1.4,13.9,2.2c2.3,1.5,2.7,5.6,2.7,8.8v36.6h18.6v-38.4 C172.7,547.2,170,541.3,164.6,537.9"/>
    <path d="M251.1,574.6c-0.3,2.5-1.5,4.1-3.6,5.1c-1.8,0.8-5.8,1.8-14.9,1.8h-6c-10,0-14-1.3-15.6-2.4c-2-1.3-3-4.3-3-8.9 c0,0,0-1,0-1.8c5,0,62.2-0.1,62.2-0.1v-11c0-9-3-15.4-9.1-19.1c-5.6-3.5-15-5.2-28.5-5.2h-6c-13.6,0-22.9,1.7-28.5,5.2 c-6,3.7-9.1,10.1-9.1,19.1v12.9c0,8.9,3.1,15.4,9.1,19c5.7,3.5,15,5.2,28.6,5.2h6c12.1,0,20.8-1.4,26.6-4.2 c6.3-3.1,9.8-8.1,10.6-15l0.4-3.1h-18.9L251.1,574.6z M211.1,548.4c1.3-0.8,5.1-2.3,15.5-2.3h6c9.9,0,14,1.3,15.7,2.3 c1.9,1.2,2.8,3.7,2.9,7.3h-42.9C208.4,552.1,209.3,549.6,211.1,548.4"/>
    <path d="M409.3,558.7c-1.9-0.6-5-1-9.3-1.3l-17.1-0.7l-5.2-0.1c-10.5-0.2-14.6-0.8-16.1-1.4c-0.5-0.2-0.9-0.4-1-0.7 c0,0-0.4-0.7-0.4-3.1c0-3.4,1.5-4.1,2.2-4.3c1.2-0.5,5.1-1.4,16.9-1.4s16.8,0.7,18.8,1.2c2.8,0.8,2.8,1.8,2.8,2.2v3.3h18.6v-2.8 c0-6.2-2.9-10.7-8.5-13.2c-5-2.2-13.9-3.3-27.2-3.3c-17.1,0-28,1.1-33.2,3.4c-4.1,1.8-9,5.8-9,14.8c0,4.3,0.8,7.6,2.6,10.1 c1.7,2.4,4.5,4.4,8.4,5.7c1.7,0.6,5.7,1.4,21.5,1.6l12.6,0.3c10.8,0.4,13.8,1.4,14.5,1.8c1.1,0.6,1.7,2.2,1.7,4.6 c0,3.3-1.3,4.4-2.3,4.8c-1,0.5-4.8,1.6-19.3,1.6c-11.8,0-16.7-0.9-18.7-1.7c-2.2-0.8-3.1-2.1-3.1-4.3v-4.1h-18.6v4.3 c0,6.9,3.1,12,9.1,14.7c5.4,2.4,15.7,3.6,31.6,3.6l17.8-0.5c4.6-0.3,7.8-0.9,10-1.8c4.6-1.8,7.8-3.9,9.7-6.3c2-2.6,3-6.2,3-10.8 c0-4.5-1-8.1-3-10.7C416.9,561.9,413.7,559.9,409.3,558.7"/>
    <path d="M510.5,538.3c-5.6-3.5-15-5.2-28.5-5.2h-6c-13.6,0-22.9,1.7-28.5,5.2c-6,3.7-9,10.1-9,19v12.9c0,8.9,3,15.4,9.1,19.1 c5.7,3.5,15,5.2,28.6,5.2h6c13.5,0,22.8-1.7,28.4-5.2c6-3.7,9-10.1,9-19.1v-12.9C519.6,548.4,516.5,542,510.5,538.3 M500.7,568.4 c0,5.7-1,9.5-3,10.8c-1.3,0.9-5,2.3-15.8,2.3h-6c-10.6,0-14.3-1.4-15.6-2.3c-1.1-0.8-2.9-3.1-2.9-10.8v-9.3c0-7.7,1.8-10,2.8-10.8 c1.2-0.8,4.9-2.3,15.6-2.3h6c10.8,0,14.5,1.4,15.8,2.3c1.1,0.7,2.9,3.1,2.9,10.7v9.4H500.7z"/>
    <path d="M594.1,533.9v34.4c0,4.6-1.6,7.8-4.9,9.9c-3.6,2.3-9.7,3.4-18.1,3.4c-9.4,0-12.8-1.4-14.1-2.2c-2.3-1.5-2.8-5.6-2.8-8.8 v-36.7h-18.4v38.4c0,8.2,2.7,14,8.1,17.5c5.1,3.2,13.3,4.7,25.2,4.7c7.8,0,14.3-0.7,19.1-2.1c2.4-0.7,4.5-1.6,6.3-2.7v4.1h18 v-59.9h-2.8L594.1,533.9L594.1,533.9z"/>
    <path d="M702.3,537.9c-5.1-3.2-13.4-4.8-25.4-4.8c-7.8,0-14.2,0.7-19,2.1c-2.4,0.7-4.5,1.7-6.4,2.7v-4.1h-17.9v59.9H652v-34.3 c0-4.6,1.6-7.8,4.9-9.9c3.7-2.3,9.9-3.5,18.3-3.5c9.2,0,12.6,1.4,13.8,2.2c2.3,1.5,2.7,5.7,2.7,8.8v36.6h18.6v-38.3 C710.4,547.2,707.7,541.3,702.3,537.9"/>
    <path d="M787.1,511.3v26.9c-1.8-1.2-3.8-2.2-6.1-2.9c-4.5-1.4-10.3-2.1-17.8-2.1c-13,0-22,1.7-27.6,5.3c-5.9,3.7-8.9,10.1-8.9,19 v12.8c0,8.8,3,15.2,8.9,18.9c5.6,3.5,14.6,5.3,27.6,5.3c7.8,0,13.9-0.8,18.6-2.3c2.2-0.7,4.1-1.8,5.8-2.9v4.5h18.1v-82.4h-2.8 h-15.8V511.3z M787.1,568.3c0,4.6-1.6,7.8-4.9,9.9c-3.7,2.3-9.9,3.4-18.4,3.4c-10.1,0-13.7-1.4-15-2.3c-1.1-0.7-2.9-3.1-2.9-10.7 v-9.4c0-7.7,1.8-10,2.9-10.8c1.3-0.9,4.9-2.3,15-2.3c8.5,0,14.8,1.2,18.4,3.4c3.3,2,4.9,5.3,4.9,9.9V568.3z"/>
    <polygon points="883.4,511.3 883.4,526.1 901.8,526.1 901.8,511.3 898.9,511.3"/>
    <polygon points="883.4,533.9 883.4,593.8 901.8,593.8 901.8,533.9 898.9,533.9"/>
    <path d="M991.3,537.9c-5.1-3.2-13.4-4.8-25.4-4.8c-7.8,0-14.2,0.7-19.1,2.1c-2.4,0.7-4.5,1.7-6.3,2.7v-4.1h-17.9v59.9H941v-34.3 c0-4.6,1.6-7.8,4.9-9.9c3.7-2.3,9.9-3.5,18.3-3.5c9.2,0,12.6,1.4,13.9,2.2c2.2,1.5,2.7,5.7,2.7,8.8v36.6h18.6v-38.3 C999.5,547.2,996.7,541.3,991.3,537.9"/>
    <path d="M1131.6,533.9c0,0-19.7,36.1-23.8,43.5c-4.1-7.5-23.9-43.5-23.9-43.5h-19.3l33.2,59.9h0.7c-0.3,0.5-0.8,1.4-0.8,1.4 c-1.6,2.7-3.3,4.6-4.9,5.4c-1.7,0.9-4.4,1.4-7.8,1.4h-2.4h-1.2l-3-0.2l-0.1,2.9l-0.1,9.7l6.4,0.5l3.2,0.1c6.7,0,12.3-1.3,16.4-3.8 c4.2-2.6,8-7.1,11.9-14l34.8-63.2h-4.8h-14.5V533.9z"/>
    <path d="M1226.5,538.3c-5.6-3.5-15-5.2-28.5-5.2h-6c-13.6,0-22.9,1.7-28.5,5.2c-6,3.7-9,10.1-9,19v12.9c0,8.9,3,15.4,9.1,19.1 c5.7,3.5,15,5.2,28.6,5.2h6c13.5,0,22.8-1.7,28.4-5.2c6-3.7,9-10.1,9-19.1v-12.9C1235.5,548.4,1232.4,542,1226.5,538.3 M1216.6,568.4c0,5.7-1,9.5-2.9,10.8c-1.3,0.9-5.1,2.3-15.8,2.3h-6c-10.7,0-14.4-1.4-15.6-2.3c-1.1-0.8-2.9-3.1-2.9-10.8v-9.3 c0-7.7,1.8-10,2.8-10.8c1.2-0.8,4.9-2.3,15.6-2.3h6c10.8,0,14.5,1.4,15.8,2.3c1.1,0.7,2.9,3.1,2.9,10.7v9.4H1216.6z"/>
    <path d="M1310,533.9v34.4c0,4.6-1.6,7.8-4.9,9.9c-3.6,2.3-9.7,3.4-18.1,3.4c-9.4,0-12.8-1.4-14.1-2.2c-2.3-1.5-2.8-5.6-2.8-8.8 v-36.7h-18.4v38.4c0,8.2,2.7,14,8.1,17.5c5.1,3.2,13.3,4.7,25.2,4.7c7.8,0,14.3-0.7,19.1-2.1c2.4-0.7,4.5-1.6,6.3-2.7v4.1h18 v-59.9h-2.9L1310,533.9L1310,533.9z"/>
    <path d="M1409.7,538c-4.4-3.3-11.4-4.9-21.5-4.9c-6.6,0-12.1,0.7-16.2,2.1c-1.8,0.6-3.2,1.5-4.6,2.4v-3.8h-18.1v59.9h18.6v-34.3 c0-4.9,1.2-8.2,3.7-10.2c2.6-2.1,7.2-3.1,13.6-3.1c7.1,0,9.8,1.1,10.7,1.7c1.7,1.2,2,4.1,2,6.4v4.4h18.6v-3.2 C1416.6,547.3,1414.2,541.4,1409.7,538"/>
    <path d="M1553.4,537.9c-5.1-3.2-13.4-4.7-25.4-4.7c-7.8,0-14.2,0.7-19.1,2.1c-2.4,0.7-4.5,1.7-6.4,2.8v-26.7h-2.8h-15v82.4h18.4 v-34.3c0-4.6,1.6-7.9,4.9-9.9c3.7-2.3,9.9-3.4,18.3-3.4c9.2,0,12.6,1.4,13.9,2.2c2.3,1.5,2.7,5.6,2.7,8.8v36.6h18.6v-38.4 C1561.5,547.2,1558.8,541.3,1553.4,537.9"/>
    <path d="M1639.9,574.6c-0.4,2.5-1.5,4.1-3.6,5.1c-1.8,0.8-5.8,1.8-14.9,1.8h-6c-10,0-14-1.3-15.6-2.4c-2-1.3-3-4.3-3-8.9 c0,0,0-1,0-1.8c5,0,62.2-0.1,62.2-0.1v-11c0-9-3-15.4-9-19.1c-5.7-3.5-15-5.2-28.5-5.2h-6c-13.6,0-22.9,1.7-28.5,5.2 c-6,3.7-9,10.1-9,19.1v12.9c0,8.9,3,15.4,9.1,19c5.7,3.5,15,5.2,28.6,5.2h6c12.1,0,20.8-1.4,26.6-4.2c6.3-3.1,9.8-8.1,10.6-15 l0.3-3.1h-18.9L1639.9,574.6z M1599.9,548.4c1.3-0.8,5.1-2.3,15.5-2.3h6c9.9,0,14,1.3,15.7,2.3c1.9,1.2,2.8,3.7,2.9,7.3h-43 C1597.2,552.1,1598.1,549.6,1599.9,548.4"/>
    <path d="M1742.7,536.5c-2.7-1.2-6.5-2.1-11.6-2.6c-4.9-0.5-12-0.7-21.2-0.7c-12.2,0-20.7,1-25.9,3.2c-5.9,2.4-8.9,6.7-8.9,12.5 v4.1h18.3l0.1-2.7c0.1-1.8,0.8-2.8,2.3-3.4c1.6-0.6,5.4-1.4,14.9-1.4c13.8,0,18.1,1,19.4,1.7c0.6,0.3,2.5,1.2,2.5,6.1v4.4 c-1.7-0.7-3.6-1.3-5.9-1.8c-4.3-0.8-10.4-1.2-18.5-1.2c-7.6,0-13.6,0.2-17.7,0.7c-4.4,0.5-7.7,1.4-10.2,2.7 c-3,1.6-5.2,3.8-6.5,6.4c-1.3,2.6-1.9,5.9-1.9,10.2c0,7.7,2.8,13.1,8.4,16c5.1,2.7,14.4,4,28.5,4c7.8,0,14-0.5,18.5-1.6 c2.4-0.6,4.5-1.4,6.3-2.3c0,0.1,0.3,3.2,0.3,3.2h17.2v-40.8c0-5-0.6-8.5-1.9-10.8C1747.9,539.9,1745.7,538,1742.7,536.5 M1732.6,577.1c0,0.6-1.3,1.6-4.3,2.5c-4,1.2-9.9,1.7-17.6,1.7c-10.6,0-14.9-1-16.7-1.8c-1.2-0.6-2.8-1.8-2.8-6 c0-3.4,1.4-4.5,2.6-5c1.6-0.8,5.7-1.7,15.5-1.7c8.8,0,15.3,0.6,19.2,1.7c1.9,0.6,4.2,1.5,4.2,2.9v5.7H1732.6z"/>
    <path d="M1843.6,511.3h-15.8v26.9c-1.8-1.2-3.8-2.2-6.1-2.9c-4.5-1.4-10.3-2.1-17.8-2.1c-12.9,0-22,1.7-27.6,5.3 c-5.9,3.7-8.9,10.1-8.9,19v12.8c0,8.8,3,15.2,8.9,18.9c5.6,3.5,14.6,5.3,27.6,5.3c7.8,0,13.9-0.8,18.6-2.3c2.2-0.7,4-1.8,5.7-2.9 v4.5h18.1v-82.4h-2.7V511.3z M1827.9,568.3c0,4.6-1.6,7.8-4.9,9.9c-3.7,2.3-9.9,3.4-18.4,3.4c-10.1,0-13.7-1.4-15-2.3 c-1.1-0.7-2.9-3.1-2.9-10.7v-9.4c0-7.7,1.8-10,2.9-10.8c1.2-0.9,4.9-2.3,15-2.3c8.6,0,14.8,1.2,18.4,3.4c3.3,2,4.9,5.3,4.9,9.9 V568.3z"/>
  </g>
</svg>
