<svg xmlns="http://www.w3.org/2000/svg" viewBox="0 0 325.04 108.33"><defs><style>.cls-1{fill-rule:evenodd;}</style></defs><path fill="currentColor" class="cls-1" d="M166,43.29h-1.62v37.3H166a18.65,18.65,0,1,0,0-37.3Z"/><polygon fill="currentColor" class="cls-1" points="240.87 70.7 250.3 70.7 245.59 54.58 240.87 70.7"/><path fill="currentColor" class="cls-1" d="M91.36,52a6.71,6.71,0,0,0-6.69-6.68H78.46V58.68h6.21A6.71,6.71,0,0,0,91.36,52Z"/><path fill="currentColor" class="cls-1" d="M0,0V108.33H325V0ZM63.48,30H43.8v16H60.91v6.14H43.8v33.1H28.14V23.8H63.48ZM93.07,85.18,83.4,63.89H78.46V85.18H67.24V38.7H84.41A12.59,12.59,0,0,1,89,63L99.1,85.18Zm22.44,0H104.28V38.7h11.23ZM148,43.9H133.05V55.35h11.62v5.21H133.05V80H148v5.22H121.83V38.7H148Zm18,41.28H153.13V38.7H166a23.24,23.24,0,1,1,0,46.48Zm60.47,0H215.24V57.6l-7.56,13.61-8-13.84V85.22h-5.22V38.74h6.13l9.53,17.71,9.4-17.71h7Zm28.1,0-.25-.83-2.69-9.2H239.55l-2.69,9.2-.24.83H231l8.72-29.81,4.88-16.67h7.7l4.88,16.67,8.74,29.81Zm42.75,0h-6.13L275.61,57.37V85.22h-5.22V38.74h6.14L292.11,66.6V38.74h5.2Z"/></svg>
