<svg xmlns="http://www.w3.org/2000/svg" viewBox="0 0 800 395">
<g transform="translate(0.000000,395.000000) scale(0.100000,-0.100000)"
fill="currentColor" stroke="none">
<path d="M0 2315 c0 -899 2 -1635 4 -1635 2 0 19 6 38 14 18 8 74 19 123 25
211 25 342 42 375 49 l35 8 6 204 c3 113 11 232 18 265 28 137 44 203 61 260
45 150 110 292 180 395 88 130 277 299 406 364 71 36 178 60 204 46 39 -21 32
-35 -111 -222 -78 -102 -149 -229 -233 -420 -30 -68 -83 -242 -102 -333 -26
-122 -26 -410 -1 -469 l17 -39 53 6 c28 4 111 13 182 22 72 8 150 17 175 20
25 3 101 13 170 21 69 8 163 19 210 24 239 29 338 40 475 55 83 10 183 22 224
29 l74 11 27 50 c36 68 96 228 117 317 12 48 18 114 18 193 0 106 -3 130 -28
203 -62 181 -176 318 -477 572 -304 257 -368 331 -426 495 -26 73 -28 92 -28
215 1 120 4 144 28 215 50 146 103 224 246 365 156 153 355 263 515 286 28 3
57 10 65 15 8 5 -582 9 -1312 9 l-1328 0 0 -1635z"/>
<path d="M2745 3940 c3 -5 17 -10 31 -10 13 0 49 -9 78 -19 165 -58 270 -206
297 -420 33 -255 -75 -511 -216 -511 -49 0 -55 19 -55 177 0 266 -60 389 -229
470 -148 71 -330 -1 -444 -175 -56 -85 -77 -148 -77 -233 0 -195 115 -354 450
-621 429 -342 560 -543 560 -863 0 -179 -45 -350 -149 -568 -23 -47 -41 -89
-41 -93 0 -8 92 -1 270 20 74 9 176 21 225 26 50 6 104 13 120 15 17 3 71 10
120 15 50 5 149 16 220 25 72 8 168 20 215 25 47 6 141 17 210 25 69 8 183 20
253 27 89 8 130 15 134 25 3 7 -18 44 -46 82 -46 62 -123 204 -164 304 -30 70
-21 75 -292 -176 -164 -152 -381 -190 -512 -91 -69 52 -181 248 -213 372 -5
20 -16 64 -25 97 -23 89 -43 196 -60 325 -17 129 -32 482 -21 523 4 18 16 29
39 36 187 56 343 89 357 75 5 -5 14 -106 20 -224 23 -465 101 -747 229 -832
104 -70 267 72 472 407 30 50 70 121 89 159 33 64 73 116 90 116 18 0 30 -31
39 -96 34 -236 124 -551 207 -719 45 -91 189 -297 216 -308 14 -5 58 0 373 38
72 9 164 20 205 25 41 5 101 12 133 16 74 9 81 19 103 156 15 95 16 118 5 190
-32 200 -100 246 -243 164 -96 -54 -172 -126 -323 -301 -75 -88 -144 -164
-152 -168 -25 -15 -46 13 -40 53 6 37 26 158 52 320 9 52 20 124 26 160 14 94
76 479 94 585 9 50 20 115 25 145 5 30 16 93 25 140 32 186 68 405 95 590 5
36 14 94 20 130 5 36 10 75 10 88 l0 22 -714 0 c-632 0 -715 2 -726 16 -11 12
-11 18 2 30 15 15 47 21 278 49 243 29 374 45 445 55 84 12 252 33 430 55 72
8 159 20 195 25 36 5 100 12 143 16 42 3 80 10 83 15 3 5 -622 9 -1471 9 -982
0 -1474 -3 -1470 -10z"/>
<path d="M5840 3908 c0 -24 -9 -104 -20 -178 -11 -74 -29 -198 -40 -275 -27
-190 -50 -344 -56 -380 -3 -16 -12 -75 -19 -130 -8 -55 -26 -176 -40 -270 -14
-93 -31 -204 -36 -245 -6 -41 -14 -93 -19 -115 -5 -22 -12 -70 -15 -107 -7
-60 -5 -68 10 -68 9 0 38 17 64 38 201 165 344 218 487 180 57 -16 121 -69
145 -122 36 -79 21 -371 -26 -511 -15 -47 -29 -80 -62 -155 -14 -30 -28 -70
-31 -89 l-5 -33 39 6 c21 3 84 11 139 16 55 6 161 17 235 25 74 8 180 19 234
25 59 6 103 15 108 22 16 25 -17 161 -61 245 -28 56 -123 157 -169 179 -29 15
-60 19 -142 19 -100 0 -105 1 -108 22 -5 31 31 95 74 133 91 79 181 120 267
120 60 0 86 -11 129 -54 20 -20 40 -36 45 -36 6 0 24 16 41 35 42 46 73 60
159 75 142 23 303 -23 338 -97 29 -61 -1 -147 -66 -190 -36 -24 -52 -27 -113
-27 -65 0 -78 3 -147 42 -84 46 -139 55 -139 23 0 -10 10 -38 23 -62 57 -107
75 -190 89 -406 9 -132 9 -188 1 -206 -10 -22 -20 -24 -129 -36 -66 -7 -159
-17 -209 -22 -49 -6 -135 -14 -190 -19 -55 -5 -167 -16 -250 -25 -276 -29
-330 -34 -337 -35 -4 0 -28 -33 -54 -73 -75 -115 -247 -322 -334 -400 -59 -53
-100 -63 -100 -24 0 13 4 27 9 33 5 5 17 25 28 44 10 19 53 87 94 150 132 200
157 259 104 246 -25 -6 -216 -28 -405 -46 -58 -6 -116 -12 -130 -15 -14 -3
-72 -9 -130 -15 -131 -12 -269 -27 -380 -40 -47 -5 -152 -17 -235 -25 -82 -8
-188 -20 -235 -25 -47 -5 -112 -12 -145 -15 -33 -3 -96 -10 -140 -15 -44 -6
-145 -17 -225 -25 -364 -38 -590 -62 -745 -81 -67 -8 -135 -14 -152 -14 -33 0
-30 3 -220 -216 -152 -173 -431 -391 -646 -504 -112 -58 -305 -126 -390 -136
-31 -3 -60 -10 -63 -15 -3 -5 1359 -9 3225 -9 l3231 0 0 1177 0 1176 -37 -40
c-66 -71 -158 -71 -218 0 -30 34 -35 48 -35 89 0 72 35 119 109 145 26 10 43
10 71 2 38 -12 90 -52 90 -69 0 -6 5 -10 10 -10 7 0 10 253 10 740 l0 740
-1080 0 -1080 0 0 -42z"/>
<path d="M7825 2513 c-29 -7 -85 -73 -85 -100 0 -29 26 -83 40 -83 6 0 10 33
10 75 l0 75 48 0 c35 0 54 -5 66 -19 16 -18 16 -21 1 -44 -15 -23 -15 -28 0
-56 19 -37 28 -39 49 -6 49 75 -38 182 -129 158z"/>
<path d="M7834 2449 c-10 -17 13 -36 27 -22 12 12 4 33 -11 33 -5 0 -12 -5
-16 -11z"/>
<path d="M7817 2353 c-2 -10 -8 -26 -12 -35 -5 -13 1 -18 28 -23 20 -4 44 -2
56 5 21 11 21 11 -8 40 -33 34 -56 38 -64 13z"/>
<path d="M2250 815 c-63 -7 -189 -20 -280 -29 -91 -9 -208 -21 -260 -26 -174
-19 -373 -39 -504 -51 -138 -14 -149 -19 -125 -67 24 -47 85 -127 123 -160
106 -93 257 -131 444 -112 223 23 423 120 652 317 119 102 134 118 125 133 -8
12 -26 12 -175 -5z"/>
<path d="M385 619 c-211 -26 -351 -34 -359 -20 -22 35 -26 -10 -26 -294 l0
-305 636 0 c585 0 715 6 572 24 -172 23 -343 130 -465 291 -57 74 -119 204
-130 270 -8 48 -9 50 -43 51 -19 1 -102 -7 -185 -17z"/>
</g>
</svg>
