<svg version="1.0" xmlns="http://www.w3.org/2000/svg"
 viewBox="0 0 1182.000000 178.000000"
 preserveAspectRatio="xMidYMid meet">
<g transform="translate(0.000000,178.000000) scale(0.100000,-0.100000)"
fill="currentColor" stroke="none">
<path d="M38 1773 c-22 -3 -29 -11 -33 -36 -3 -18 -5 -394 -3 -837 2 -633 6
-810 16 -828 11 -19 21 -22 77 -22 59 0 65 2 69 23 3 12 7 363 9 780 2 417 6
760 9 762 2 3 623 8 1379 11 l1374 6 81 -41 c99 -50 172 -124 216 -216 29 -63
30 -70 26 -173 -3 -92 -8 -115 -31 -160 -54 -107 -135 -182 -232 -217 -64 -23
-469 -33 -1412 -34 l-663 -1 0 -192 c0 -106 5 -200 10 -208 8 -13 155 -15
1205 -18 658 -1 1210 1 1228 6 30 8 32 11 35 56 2 27 -2 54 -8 60 -8 8 -337
12 -1160 16 -631 3 -1151 8 -1154 11 -12 12 -17 104 -7 119 8 12 145 15 953
21 923 7 944 8 999 28 239 90 378 285 379 531 0 138 -48 263 -141 364 -65 71
-115 106 -221 154 l-83 37 -1445 1 c-795 1 -1457 -1 -1472 -3z"/>
<path d="M3666 1749 l-26 -31 2 -814 c3 -765 4 -814 21 -831 27 -27 227 -33
248 -7 11 14 15 81 20 348 4 225 10 341 18 362 l12 32 217 7 c259 9 444 -3
494 -32 66 -38 130 -189 153 -360 21 -155 40 -245 65 -299 27 -62 60 -74 198
-74 153 0 154 2 107 146 -19 60 -42 143 -50 184 -68 356 -81 400 -131 465
l-35 47 74 77 c86 90 124 161 140 260 23 151 -21 281 -133 391 -56 55 -90 76
-210 127 l-65 28 -546 3 -547 3 -26 -32z m1074 -247 c146 -73 181 -258 71
-375 -53 -58 -64 -60 -361 -70 -151 -4 -320 -6 -374 -3 -143 8 -138 -1 -139
227 -2 159 0 188 16 217 l18 32 357 0 357 0 55 -28z"/>
<path d="M6952 1746 l-24 -34 4 -811 c3 -762 4 -811 21 -828 15 -15 39 -19
138 -21 121 -4 121 -4 150 24 l29 28 -1 760 c0 419 -4 783 -8 809 -4 27 -17
60 -28 75 -20 26 -23 27 -139 30 l-119 2 -23 -34z"/>
<path d="M11518 1748 c-22 -31 -23 -43 -29 -298 -4 -146 -8 -266 -8 -267 -4
-10 -39 1 -84 27 -28 16 -83 41 -122 56 -65 25 -81 28 -220 28 -165 1 -197 -6
-330 -70 -157 -76 -264 -182 -338 -334 l-42 -85 1 -150 c1 -141 2 -154 29
-219 82 -199 227 -331 440 -401 69 -22 98 -26 206 -26 110 0 136 3 205 26 43
14 116 46 161 71 44 24 84 44 87 44 3 0 13 -18 22 -40 9 -22 25 -45 35 -50 10
-6 65 -10 123 -10 l106 0 30 33 30 32 -2 790 -3 790 -30 42 -30 43 -107 0
-107 0 -23 -32z m-343 -703 c125 -33 239 -130 283 -243 21 -52 23 -72 20 -158
-3 -91 -7 -105 -43 -178 -44 -88 -98 -139 -195 -185 -50 -23 -67 -26 -175 -26
-112 0 -124 2 -178 28 -80 40 -151 112 -190 194 -30 64 -32 75 -32 178 0 103
2 114 32 177 41 87 96 141 196 189 71 34 90 39 152 39 39 0 98 -7 130 -15z"/>
<path d="M450 1430 l-85 -5 -3 -655 c-1 -360 0 -670 3 -687 6 -33 6 -33 65
-33 35 0 62 5 66 12 4 7 11 78 15 158 4 80 8 149 8 155 1 5 22 -22 47 -60 80
-123 150 -181 285 -236 l71 -29 1239 0 1239 0 0 64 0 63 -1227 5 -1228 5 -75
38 c-103 51 -160 113 -199 216 -33 86 -37 128 -21 223 20 123 94 224 210 285
56 30 76 35 174 42 61 4 469 9 906 10 437 1 847 4 910 8 l115 6 3 203 c2 157
0 203 -10 206 -19 7 -2410 12 -2508 6z m2376 -143 c10 -9 13 -114 5 -127 -9
-13 -130 -16 -948 -21 -667 -5 -951 -10 -983 -18 -130 -35 -265 -137 -337
-255 l-38 -61 -7 40 c-4 22 -7 134 -7 249 l-1 209 1157 -6 c636 -4 1158 -8
1159 -10z"/>
<path d="M5925 1309 c-285 -34 -477 -154 -600 -373 -45 -81 -65 -162 -65 -266
0 -196 45 -305 179 -441 73 -73 100 -93 181 -132 133 -64 197 -77 390 -84 148
-5 175 -3 260 16 52 13 138 43 190 67 82 39 106 56 181 134 104 106 142 176
171 319 23 113 19 178 -18 291 -41 122 -97 203 -207 297 -159 136 -411 202
-662 172z m258 -259 c128 -40 231 -128 282 -244 41 -94 48 -138 29 -208 -45
-177 -173 -304 -341 -338 -31 -7 -99 -10 -152 -8 -85 4 -105 8 -172 41 -87 42
-161 113 -205 198 -27 50 -29 62 -29 169 0 112 1 117 34 178 19 35 57 84 85
109 56 51 167 108 237 123 59 12 154 4 232 -20z"/>
<path d="M7975 1315 c-5 -2 -46 -9 -90 -14 -64 -8 -99 -19 -180 -60 -112 -56
-172 -109 -229 -205 -69 -115 -45 -139 132 -134 l119 3 70 66 c78 74 127 94
253 105 130 11 238 -22 298 -91 42 -47 45 -85 13 -118 -19 -20 -33 -21 -393
-47 -271 -19 -380 -53 -467 -144 -84 -90 -96 -122 -96 -261 0 -140 9 -165 88
-251 55 -61 98 -88 202 -130 67 -28 78 -29 225 -29 142 1 162 3 235 28 45 15
112 46 150 68 l70 41 42 -47 43 -47 100 4 c76 2 103 7 110 18 6 9 10 201 10
470 l0 455 -37 55 c-88 131 -222 217 -381 246 -89 15 -269 28 -287 19z m400
-755 c4 -17 0 -52 -9 -84 -22 -74 -81 -133 -181 -181 l-79 -37 -120 4 c-109 3
-127 6 -179 32 -67 32 -97 72 -97 128 0 56 18 85 68 109 98 48 164 58 384 58
l206 1 7 -30z"/>
<path d="M9585 1306 c-126 -20 -230 -59 -327 -123 -21 -14 -43 -23 -51 -20 -7
3 -19 29 -25 58 -7 29 -17 58 -23 66 -8 9 -44 13 -130 13 -118 0 -119 0 -136
-27 -17 -25 -18 -71 -21 -594 l-3 -568 22 -30 23 -31 103 0 c71 0 113 5 132
14 l28 15 7 319 c5 233 10 335 21 378 29 114 128 221 243 264 73 28 248 28
307 1 47 -22 109 -83 126 -126 9 -22 14 -142 17 -433 l4 -402 28 -15 c20 -10
60 -15 129 -15 96 0 101 1 126 27 l25 28 0 375 c0 349 -1 381 -21 450 -28 103
-63 164 -134 235 -72 72 -138 109 -241 135 -87 23 -116 23 -229 6z"/>
</g>
</svg>
