<svg xmlns="http://www.w3.org/2000/svg" viewBox="0 0 960 363">
<g transform="translate(0,363) scale(0.1,-0.1)" fill="currentColor" stroke="none">
<path d="M4836 3387 c-18 -19 -26 -43 -36 -113 -28 -207 -41 -300 -46 -316 -3 -10 -17 -20 -32 -23 -107 -22 -126 -38 -120 -102 3 -31 9 -40 43 -58 21 -13 41 -27 43 -33 1 -5 -11 -104 -28 -218 -37 -245 -49 -442 -31 -497 7 -21 28 -54 47 -73 33 -36 34 -36 103 -32 60 3 75 8 107 34 21 16 46 47 57 67 23 45 13 63 -38 73 -103 19 -114 119 -55 489 26 161 42 201 85 215 24 8 37 20 44 42 15 44 14 52 -14 82 -21 23 -25 37 -25 89 0 34 7 107 15 162 20 142 19 191 -5 215 -28 28 -84 27 -114 -3z"/>
<path d="M2431 3368 c-33 -34 -68 -100 -95 -182 -27 -79 -61 -354 -75 -592 -4 -73 -11 -137 -15 -141 -23 -22 -189 211 -248 350 -38 87 -80 228 -93 312 -11 75 -3 75 -222 5 -235 -74 -341 -122 -412 -186 -68 -61 -96 -107 -119 -191 l-19 -68 -77 -7 c-114 -11 -225 -44 -292 -88 -66 -43 -139 -127 -183 -210 -17 -31 -65 -94 -106 -141 -184 -203 -252 -359 -275 -626 -27 -311 63 -667 235 -928 81 -124 234 -254 369 -315 232 -104 437 -69 611 105 84 84 118 144 148 262 l22 88 43 3 c24 2 67 -4 97 -13 l55 -16 0 -55 c0 -127 -52 -269 -110 -299 -40 -21 -49 -19 -113 15 -70 37 -83 37 -102 0 -33 -63 -2 -175 56 -206 40 -20 128 -20 169 1 119 62 239 304 240 485 0 82 6 91 77 140 77 52 134 120 176 209 25 53 31 80 35 160 8 167 -35 333 -173 676 -84 208 -139 370 -160 472 -19 93 -30 233 -19 233 5 0 25 -30 44 -68 19 -37 89 -152 154 -257 66 -104 158 -266 205 -360 47 -93 91 -171 98 -173 22 -6 25 84 18 480 -9 481 -5 494 59 213 56 -242 123 -450 186 -575 60 -118 134 -216 255 -336 87 -86 129 -119 181 -145 65 -32 74 -34 174 -34 117 1 184 22 234 74 23 24 25 30 12 40 -8 7 -58 16 -110 21 -121 10 -173 37 -282 145 -91 90 -146 169 -233 335 -197 377 -315 814 -336 1250 -3 74 -9 143 -11 153 -8 26 -38 20 -73 -15z m-705 -660 l-1 -253 42 -165 c24 -91 79 -282 122 -424 106 -342 115 -389 108 -546 -7 -146 -26 -223 -63 -247 -53 -34 -66 -5 -145 310 -28 109 -49 210 -47 224 2 20 16 34 56 58 29 17 57 38 63 46 13 21 11 79 -3 83 -7 2 -40 8 -73 15 -33 6 -71 19 -85 29 -63 47 -103 151 -120 312 l-10 101 61 59 c61 58 62 58 57 105 -8 63 -21 75 -59 52 -62 -35 -69 -24 -69 112 0 54 -3 119 -6 145 -7 45 -7 46 -43 46 -20 0 -70 -9 -111 -20 -90 -24 -109 -25 -116 -5 -8 21 51 92 95 114 20 10 70 26 111 34 55 12 223 59 236 66 1 1 1 -113 0 -251z m-340 -203 c4 -8 2 -36 -2 -61 l-9 -47 -32 31 c-39 35 -43 69 -10 82 33 13 47 12 53 -5z m-262 -25 c15 -5 41 -31 59 -57 55 -81 105 -129 167 -162 l60 -32 0 -47 c0 -50 15 -186 26 -238 6 -30 2 -35 -49 -73 -90 -66 -87 -111 8 -111 82 0 79 5 164 -315 33 -122 76 -275 95 -340 44 -143 45 -162 11 -171 -47 -12 -77 11 -118 90 -64 125 -177 185 -301 162 -60 -11 -154 -112 -129 -137 5 -5 41 -13 81 -19 116 -16 175 -56 222 -150 45 -90 22 -246 -48 -319 -21 -22 -69 -55 -108 -73 -64 -30 -77 -33 -169 -33 -85 0 -107 4 -150 24 -73 35 -218 186 -279 290 -101 173 -209 452 -241 626 -24 126 -17 406 13 518 44 163 70 182 127 92 46 -71 79 -88 161 -83 78 5 141 43 162 100 17 45 11 75 -22 111 -35 37 -61 34 -103 -13 -43 -47 -60 -50 -96 -12 -35 36 -34 64 2 104 27 31 34 33 93 33 152 -1 275 -113 332 -304 19 -64 21 -167 4 -223 -14 -49 -81 -126 -125 -144 -41 -18 -105 -18 -146 0 -18 7 -49 32 -69 56 -47 55 -72 52 -76 -9 -4 -55 12 -93 54 -131 43 -37 90 -50 184 -50 89 0 138 20 204 80 106 98 146 198 146 365 0 229 -78 373 -245 456 -65 32 -77 34 -188 38 -101 3 -118 5 -115 19 4 23 63 54 138 74 72 19 224 23 264 8z"/>
<path d="M5378 3377 c-58 -49 -65 -117 -17 -172 36 -41 73 -46 113 -14 62 49 75 132 27 180 -37 36 -84 39 -123 6z"/>
<path d="M7203 3175 c-97 -30 -204 -122 -243 -208 -29 -62 -28 -227 2 -318 25 -79 20 -92 -45 -110 -112 -30 -234 -117 -297 -211 -119 -179 -103 -400 40 -552 56 -59 135 -105 224 -131 89 -26 242 -17 318 17 119 55 187 159 196 304 5 81 4 86 -27 135 -17 28 -31 54 -31 59 0 5 42 22 93 39 166 56 246 130 255 237 3 37 -1 69 -13 100 -28 75 -110 109 -155 64 -37 -37 -19 -87 38 -104 29 -9 28 -35 -3 -68 -38 -41 -100 -73 -210 -108 -156 -49 -185 -60 -258 -98 -110 -57 -166 -138 -183 -264 -11 -81 36 -123 94 -82 20 14 22 24 22 103 0 109 12 126 88 119 92 -9 142 -70 142 -170 0 -75 -32 -135 -90 -167 -37 -21 -58 -25 -130 -25 -114 -1 -178 21 -241 84 -54 54 -66 99 -55 200 21 187 127 336 303 428 109 56 109 57 81 134 -31 88 -31 220 0 300 28 69 70 124 124 161 48 32 87 34 143 8 62 -28 79 -53 83 -125 4 -59 2 -65 -27 -98 -35 -40 -38 -53 -15 -62 58 -22 109 7 148 86 46 93 31 165 -52 248 -39 39 -73 62 -106 73 -58 20 -154 21 -213 2z"/>
<path d="M5245 2914 c-34 -17 -82 -61 -96 -86 -8 -14 -3 -20 25 -32 55 -23 71 -58 69 -146 -2 -75 -8 -106 -78 -355 -20 -71 -37 -156 -38 -187 -1 -51 2 -61 28 -88 41 -43 120 -65 175 -50 53 14 132 85 128 114 -3 19 -29 38 -72 51 -31 9 -17 163 33 371 22 94 44 191 47 215 9 65 -11 127 -56 171 -33 34 -43 38 -86 38 -27 0 -62 -7 -79 -16z"/>
<path d="M4343 2869 c-24 -12 -57 -39 -74 -60 l-31 -39 -36 28 c-52 41 -76 52 -112 52 -41 0 -80 -21 -118 -65 -52 -59 -56 -115 -7 -115 93 0 115 -86 97 -368 -30 -450 -33 -431 68 -416 60 8 64 11 71 39 4 17 15 134 24 260 22 327 44 416 114 462 19 13 47 23 63 23 109 0 161 108 91 190 -20 24 -32 30 -66 30 -23 0 -61 -9 -84 -21z"/>
<path d="M5764 2839 c-47 -11 -90 -50 -81 -74 4 -8 17 -19 29 -24 13 -5 32 -18 42 -30 38 -42 8 -245 -79 -526 -41 -135 -47 -166 -36 -183 10 -17 71 -31 104 -25 30 6 34 15 82 178 84 288 191 478 277 492 55 8 84 -3 98 -37 17 -42 3 -108 -71 -326 -74 -218 -85 -298 -47 -354 43 -64 148 -92 198 -52 l22 17 -28 79 c-36 104 -30 146 47 383 74 227 85 307 47 363 -27 41 -116 90 -163 90 -17 0 -66 -9 -108 -20 l-76 -20 -58 37 c-64 40 -123 50 -199 32z"/>
<path d="M8724 2764 c-159 -26 -332 -93 -466 -179 -95 -61 -339 -306 -443 -445 -90 -121 -156 -252 -186 -371 -31 -120 -24 -289 14 -372 51 -111 142 -197 274 -260 62 -29 77 -32 164 -32 90 0 99 2 171 37 56 28 92 56 140 107 164 173 179 377 38 505 -54 49 -106 72 -126 55 -20 -16 -18 -26 16 -93 35 -68 37 -110 12 -193 -32 -102 -102 -192 -185 -235 -90 -47 -217 -23 -282 54 -123 145 -90 368 95 646 191 286 399 468 656 573 134 54 207 72 301 72 69 0 91 -4 137 -27 192 -94 209 -320 38 -493 -32 -32 -80 -69 -107 -82 -99 -49 -204 -36 -245 31 -40 66 -19 116 85 199 36 29 64 58 62 63 -7 21 -52 37 -90 32 -69 -8 -171 -114 -198 -207 -35 -114 58 -254 194 -294 137 -41 318 11 455 131 171 150 205 379 82 559 -38 55 -135 146 -191 178 -92 54 -249 69 -415 41z"/>
<path d="M3593 2726 c-17 -8 -34 -24 -38 -36 -6 -20 -11 -21 -49 -14 -22 5 -66 8 -96 8 -102 0 -227 -89 -279 -197 -44 -91 -55 -162 -55 -352 0 -201 12 -275 65 -382 42 -88 82 -116 170 -121 81 -5 147 21 221 87 51 46 61 48 107 25 39 -19 74 -13 136 27 32 21 52 42 66 73 22 51 17 74 -20 82 -103 22 -102 18 -112 387 -4 171 -8 328 -9 348 0 64 -46 92 -107 65z m-131 -231 c57 -12 89 -120 89 -300 0 -190 -34 -303 -105 -346 -47 -29 -83 -24 -121 14 -123 123 -80 585 59 636 20 8 25 8 78 -4z"/>
<path d="M9269 1851 c-20 -20 -29 -40 -29 -61 0 -96 105 -146 171 -81 64 65 20 171 -71 171 -33 0 -48 -6 -71 -29z m136 -6 c28 -27 34 -88 12 -116 -17 -23 -52 -39 -82 -39 -39 0 -85 50 -85 93 0 77 100 118 155 62z"/>
<path d="M9303 1780 c0 -30 2 -43 4 -27 2 15 2 39 0 55 -2 15 -4 2 -4 -28z"/>
<path d="M9355 1817 c17 -13 17 -15 -6 -30 -13 -10 -18 -17 -12 -17 6 0 15 -9 18 -20 3 -11 11 -20 17 -20 6 0 4 10 -5 23 -14 21 -13 24 1 33 20 13 9 44 -15 44 -15 0 -15 -1 2 -13z"/>
<path d="M8854 1512 c-86 -30 -162 -83 -253 -173 -90 -91 -136 -157 -179 -261 -21 -51 -26 -80 -26 -148 -1 -110 23 -162 105 -230 106 -88 227 -112 362 -70 149 46 324 229 405 422 22 52 27 78 27 153 0 78 -4 97 -27 140 -32 61 -97 125 -158 157 -61 31 -183 36 -256 10z m231 -198 c52 -56 42 -135 -30 -244 -82 -123 -214 -240 -302 -266 -59 -18 -97 -8 -134 34 -29 32 -31 40 -27 91 6 88 40 144 152 257 118 118 180 154 263 154 45 0 58 -4 78 -26z"/>
<path d="M5774 1039 c-53 -12 -117 -68 -138 -119 -15 -38 -15 -43 4 -90 25 -64 25 -95 0 -127 -14 -18 -20 -41 -20 -78 0 -72 33 -132 95 -170 44 -27 55 -30 140 -30 85 0 96 3 133 29 78 54 113 171 75 250 -15 33 -15 39 0 87 48 147 1 225 -151 249 -66 11 -82 11 -138 -1z m159 -137 c9 -8 17 -27 17 -42 0 -80 -139 -92 -180 -16 -12 24 -12 29 7 47 37 37 119 43 156 11z m-19 -253 c30 -24 34 -63 9 -91 -24 -26 -111 -25 -147 3 -33 26 -35 71 -4 93 33 23 109 21 142 -5z"/>
<path d="M6382 1031 c-41 -11 -80 -46 -98 -88 -18 -42 -18 -58 2 -78 15 -14 20 -12 66 31 47 44 52 46 94 41 87 -9 126 -89 69 -139 -33 -29 -32 -43 10 -89 72 -80 35 -179 -66 -179 -45 0 -68 17 -88 63 -34 79 -73 88 -104 24 -22 -45 -17 -73 20 -118 44 -52 114 -79 209 -79 102 0 154 24 202 94 43 65 43 105 -3 176 l-36 55 7 90 c6 84 4 92 -18 124 -12 19 -39 43 -60 53 -41 22 -155 32 -206 19z"/>
<path d="M6963 1019 c-52 -25 -103 -82 -103 -112 0 -31 27 -67 50 -67 10 0 41 23 68 50 51 52 65 57 105 39 21 -10 57 -65 57 -88 0 -4 -14 -29 -32 -56 l-32 -48 22 -16 c11 -9 33 -24 47 -34 29 -21 32 -51 11 -102 -17 -39 -42 -55 -89 -55 -37 0 -87 32 -87 56 0 24 -47 64 -74 64 -31 0 -40 -26 -31 -88 14 -92 120 -162 222 -148 118 16 236 141 219 231 -4 18 -23 54 -43 80 -35 47 -36 48 -24 99 8 36 8 62 1 88 -12 43 -61 95 -107 114 -49 21 -131 17 -180 -7z"/>
<path d="M3708 1010 c-112 -21 -196 -61 -216 -103 -20 -41 -19 -148 1 -177 28 -40 96 -79 150 -86 79 -11 139 -76 109 -120 -16 -24 -55 -36 -96 -30 -23 4 -80 29 -126 56 -46 27 -87 47 -92 44 -4 -3 -8 -15 -8 -27 0 -35 30 -141 43 -154 18 -18 268 3 323 27 59 25 96 79 102 144 8 93 -27 134 -156 180 -106 38 -114 43 -110 74 3 24 8 27 46 30 32 2 61 -5 113 -29 84 -39 92 -34 86 56 -5 69 -33 136 -56 134 -9 -1 -60 -9 -113 -19z"/>
<path d="M5300 1000 c-25 -16 -61 -43 -80 -59 l-35 -30 32 -33 33 -34 2 -209 3 -210 40 -3 c21 -2 54 -1 73 3 l34 6 -7 265 c-8 285 -13 327 -36 332 -8 1 -35 -11 -59 -28z"/>
<path d="M4011 968 c-20 -27 -31 -52 -29 -68 3 -24 5 -25 66 -22 34 2 63 2 63 0 1 -2 4 -102 8 -223 l6 -220 55 -3 c30 -1 62 2 70 7 11 8 15 50 20 215 3 122 10 210 16 216 7 7 30 4 75 -9 85 -27 98 -16 65 54 -41 88 -45 90 -226 93 l-157 3 -32 -43z"/>
<path d="M2933 990 c-28 -11 -28 -11 -3 -57 18 -34 20 -57 20 -219 0 -135 -4 -194 -16 -234 -13 -44 -13 -54 -2 -61 7 -5 82 -9 166 -9 141 0 154 2 173 21 29 29 49 81 49 129 0 48 -11 50 -64 10 -92 -70 -191 -36 -157 53 8 21 17 27 41 27 17 0 39 9 50 20 38 38 16 100 -35 100 -48 0 -55 9 -55 67 l0 56 68 -5 c50 -4 81 -12 114 -32 35 -21 47 -24 55 -14 16 21 -4 74 -46 118 l-38 40 -149 -1 c-82 0 -159 -4 -171 -9z"/>
<path d="M4619 581 c-21 -22 -29 -39 -29 -66 0 -42 44 -95 80 -95 30 0 80 53 80 85 0 38 -27 84 -56 95 -37 14 -43 13 -75 -19z"/>
<path d="M8905 465 c-33 -32 -34 -83 -2 -113 33 -31 70 -28 101 9 31 37 33 67 5 103 -27 34 -71 35 -104 1z"/>
</g>
</svg>
